<svg xmlns="http://www.w3.org/2000/svg" width="771" height="769" fill="none" viewBox="0 0 771 769"><circle cx="382" cy="382" r="382" fill="url(#a)" fill-opacity=".2" transform="matrix(1 0 0 -1 3.21 766.44)"/><path fill="#31558a" d="m764.43 376.96-.5.03zm2.7-3.06-.25-.44zm-.3-5.97.5-.03zm.84-3.05.43.26zm1.16-6.11-.5-.05zm-3.4-8.77-.18.46zm-1.7-11.9-.3-.4zm1.39-3.19.4-.29zm-1.9-2.77-.42.27zm-.45-5.98.26-.43zm-1.39-2.83.47.18zm.92-3.2.5.1zm-2.7-8.64.45-.21zm-1.63-2.72.4-.3zm-1.68-2.7-.44.22zm.1-3.09-.46-.2zm2-3.51.4.27zm.93-3.3.49-.1zm-3.02-2.36-.15.47zm-1.23-2.8.4.31zm-.52-2.94-.22.44zm-.44-6.11.35-.36zm-.8-6.04-.43-.27zm-1.77-2.6-.1.5zm-1.93-2.55.44.23zm1.59-3.66-.48-.16zm-.5-3 .37-.34zm-6.43-4.18.5-.1zm.83-3.47-.44-.24zm.66-3.42-.48.16zm-1.24-2.75-.43.25zm-1.59-2.62.43-.27zm-2.5-2.25-.24.44zm-4.88-10.94-.46.17zm-2.1-5.62.35-.36zm-2.08-2.34-.4.3zm-4.65-11.03-.48.14zm-10.1-18.33.43-.24zm-1.31-6.17-.45.23zm-3.14-1.6.05-.5zm-1.94-2.35.49.12zm-1.7-5.98.49.1zm-1.05-2.89-.25.43zm-4-8.18-.5-.05zm-.99-2.97.33-.37zm-10.2-7.5-.5.06zm.26-3.93.5.1zm-5.26-3.54-.5.08zm-7.02-9.71.07.5zm-2-2.26-.48-.14zm-4.52-4 .16-.48zm-5.9-6.76.49.08zm-1.62-2.56.05-.5zm-5.33-3.2-.25.43zm-6.03-6.62-.17.47zm-3.62-4.84.12-.48zm-2.69-1.52.37-.33zm-1.34-2.92-.5.1zm-2.74-5.86.13-.48zm-6.4-1.86-.04-.5zm-11.71-14.06.49-.12zm-3.2-.8.18.47zm-5.23-3.05-.13-.49zm-6.78-5.98-.5-.05zm-5.45-2.68-.1.49zm-3.73-5.15.11.49zm-3.2-.66-.36.34zm-8.42-3.52.16-.47zm-2.6-1.5-.33.38zm-2.73-1.26-.08.5zm-1.33-3.57-.5-.03zm-4.2-4.67.36-.35zm-6.12-1.42-.2-.46zm-5.5-2.5-.49.08zm-1.83-2.91-.17.47zm-3.52.23-.17-.47zm-2.89-.95.45-.22zm-4.48-4.45-.48.14zm-3.09-.5-.28-.41zm-3.15-.4.48-.15zm-2.2-2.34-.08.5zm-5.39-2.65-.23.44zm-9.01-1.8-.19-.47zm-4.97-3.66.23.44zm-2.72-1.31-.48.14zm-2.37-2.21-.04-.5zm-14.1-5.3.32-.39zm-5.95-1.21-.43.26zm-2.7-1.4.08.5zm-2.8-1.2-.4.3zm-2.67-1.54.01-.5zm-3.1-.13.02-.5zm-2.88-.91-.27.42zm-5.63-2.38.18-.47zm-2.97-.54v.5zm-3.64 2.25-.37-.34zm-2.96-.6.48-.15zm-8.69-2.34.01-.5zm-3.08.14-.05-.5zm-5.7-2.13.49-.14zm-9.03-.48.43-.25zM431.8 4.27l.18-.47zm-2.9-1.13.17-.46zm-6.4 3.37.25.43zm-8.88-1.03v.5zm-8.85-2.77-.43.25zm-6 .13.43-.27zm-9 1.25-.36.36zM371.7 1.4l-.01-.5zm-8.97.91-.32-.39zm-6.02.32.45.23zm-6.08-.55-.37-.33zm-11.4 6.23-.05-.5zm-3.2-1.51.34-.36zm-3.17-1.17.16.47zm-5.98.55.4.3zm-2.92.82.22-.45zm-3.1-.32.16.47zm-8.38 4.24.26-.43zm-6.18-.42-.1-.49zm-8.17 4.64-.02-.5zm-8.86 1.35-.4-.3zm-6.7-1.73-.24-.43zm-2.62 1.77-.3-.4zm-5.67 2 .28-.4zm-2.7 1.38.48.13zm-2.4 2.38.1-.49zm-3.33-.55.07-.5zm-3.29-.36-.04.5zm-4.86 4.3-.19.45zm-3.73-1.53.19-.47zm-2.46 1.98.5.1zm-2.85 1.02.3-.4zm-11.46 3.66-.46-.21zm-8.46 3.21.44.23zm-1.98 2.93.37.34zm-2.72 1.27-.02-.5zm-3.43-.23-.09.49zm-1.93 2.88.5.02zm-1.6 3.58.14.48zm-2.75 1.14.24.43zm-8.22 3.59-.02-.5zm-2.5 1.65.45.23zm-3.13.52.21-.45zm-5.11 3.1-.02-.5zm-3.81-.58-.15.48zm-6.48 6.68.18-.47zm-3.78-.4.16.47zm-2.71 1.34.28.41zm-2.48 1.7-.29-.4zm-2.54 1.62.25.44zM172.1 68l-.5-.04zm-6.45 6.47-.04-.5zm-13.33 7.1.5-.06zm-.67 4.03.38.32zm-2.22 2 .29.4zm-3.53.36-.1.5zm-2.22 2 .5-.02zm-12.38 8.58-.49-.11zm-10.53 6.36-.3-.4zm-3.28 9.56-.13-.48zm-6 2.48.5-.1zm-9.27 11.87.5.03zm-1.71 2.5-.17-.47zm-1.56 2.6-.5.02zm-4.9 3.68.49-.13zm-2.1 2.17-.08.5zm-4.11 4.38.3.4zm-1.8 2.4-.47-.19zm-1.71 2.48.33.37zm-5.55 7.07-.44.23zm-.37 3.48-.1-.49zm-2.3 2.02-.48-.11zm-2.21 2.1-.13-.48zm-1.84 2.36.5-.01zm-4.2 8.01-.45-.2zm-6.55 6.47.48-.13zm-1.07 2.88-.2-.45zm-4.54 11.23.24.44zm-2.22 2.18-.44-.23zm-4.2 4.52.44-.24zm-.73 6.4h.5zm-2.36 5.5.48.16zm-2.87 1.92.1.49zm-2.29 2.2-.5.04zm-5.79 13.86-.46-.19zm.2 3.36-.45.18zm-1.71 2.53-.11-.49zm-1.27 2.7-.43.24zm-.6 2.99-.21-.45zm-4.6 4.64-.14-.48zm-1.44 5.88-.45-.21zm-.63 6.13.46-.2zm-1.35 2.71-.19-.46zm-1.98 8.8-.35-.36zm-1.34 2.7.5.05zm-1.86 2.58-.26-.42zm-1.68 2.63h.5zm-1.39 5.87-.4-.3zm-1.75 2.65-.44-.24zm.46 6.31-.47-.15zm-2.47 2.5-.23-.44zm.77 12.46.4.3zm-2.67 2.52-.29-.4zm-1.78 11.88.2.46zm-2.78 14.76.24.43zm.19 3.03-.3.4zm1.17 3.16-.38-.33zm-2.13 2.8.42.27zm-2.17 5.83.44-.24zm3.8 12.29-.49-.12zm-2.8 5.84-.35.36zm1.5 3.05-.5-.04zM.5 379.75l.5-.05zm2.9 9.08-.25-.44zm-2.37 3.04-.5.09zm2.02 5.96.5-.09zm-.32 18.1-.43.25zm1.06 5.95-.34-.37zm-.1 3.02.3-.4zm2.15 2.8-.49.12zm.3 3-.5-.02zm.35 2.97-.49.13zm1.36 8.88-.42.27zm.5 6.02-.3-.4zm2.69 5.6-.46-.2zm.68 2.9-.33.37zm1.82 2.68-.48.13zm.56 2.93.5-.06zm-3.61 6.93.41-.28zm3.6 8.41.26-.42zm3 5.43-.49-.05zm1.53 2.68-.28.42zm-1.04 9.67-.3.4zm3.94 1.93-.16.47zm.98 2.84-.4-.3zm.44 3-.23.44zm.5 6.16-.46.17zm2.35 2.35.23-.45zm.15 6.34.5.08zm9 15.8.45.21zm-1.43 3.89-.49-.12zm5.83 3.96-.31.39zm1.82 2.44-.47.17zm3.74 11.46.5.02zm2.8 8.69.44.25zm4.4 4.42.17-.48zM53 572l-.45-.2zm-.82 3.94-.5.04zm8.06 5.68-.5-.1zm2.14 5.7.48-.13zm2.38 5.6.33-.37zm1.94 2.32-.43.25zm.89 3.02.5-.03zm2.9 1.63-.01-.5zm2.06 5.9.11-.5zm8.96 8.3-.28.42zm1.25 2.83-.5-.01zm9.12 11.9.5.06zm1.27 2.83.19-.46zm1.3 2.87-.5-.07zm1.67 2.53-.08.5zm5.72 2.95-.12-.49zm4.05.36-.36.35zm5.29 7.3.27-.43zm2.65 1.58.24-.43zm7.47 9.4-.17.48zm2.68 5.9-.3.4zm2.34 1.9-.33.37zm2.98 1.18.05-.5zm1.64 2.7.5.04zm.94 3.46-.32.39zm27.65 18.43.5.03zm4.71 3.7-.2.46zm2.47 1.7.36-.36zm2.35 1.88-.26.42zm1.66 2.91.5-.09zm5.8 2.13-.22.44zm4.9 3.48.41-.27zm1.94 2.57.38-.33zm2.86 1.09-.03-.5zm2.7 1.35-.43.26zm4.25 4.66-.31.4zm6.48.8-.5-.01zm5.9 1.66.03-.5zm3.23.29-.07.5zm2.2 2.24-.48.15zm1.68 3.29.38-.33zm3.03.64-.14-.48zm5.9 1.56-.14.48zm8.59 2.77-.01-.5zm15.3 9.94.4-.31zm2.3 2.4-.33.38zm9.16 1.27-.35.36zm2.57 1.73-.19.46zm9.03 1.37-.32-.38zm3.26-.34-.4.3zm2.79 1.08.1.48zm2.61 1.7.46-.2zm6.01.7-.04-.5zm17.13 5.45v-.5zm11.8 2.03-.29-.41zm5.61 2.6-.2-.46zm3.35-1.75-.26-.44zm2.82 1.36.45-.22zm17.45 5.26-.26.43zm24.2-1.15.32-.38zm2.87 2.6.35-.37zm3.03-1.06-.42-.27zm3.05-1.6-.25.43zm5.94 2.85-.01-.5zm3.02.69-.22.44zm21.1-.36-.27-.42zm11.9-2.59.38.32zm8.73-2.9-.18-.46zm9.09.28-.4.31zm3.19 1.38-.27-.42zm2.92-.82-.03.5zm2.97-.4-.15-.47zm14.65-3.42.33-.38zm3.28 1.17-.15-.48zm6.07-.48-.18.46zm2.8-1.31-.44-.24zm5.3-3.74.2-.45zm9.31.08.15.48zm5.43-2.97-.02-.5zm3.05-.24.07.5zm5.07-3.9-.44-.24zm3.29.41.35-.36zm3.4.76-.4-.3zm2.13-3.1.42.26zm2.54-1.84.06.5zm6.22-.37-.34.36zm3.47.73-.42-.27zm2.75-1.28-.08.5zm4.93-3.9.17.46zm4.93-3.75-.05.5zm6.95.99-.37-.34zm2.1-2.7-.41-.28zm6.98-6.31v.5zm3.18-.28.08.5zm4.9-3.59v-.5zm2.85-.95.31.39zm16.65-7-.21.46zm3.9.73.13.49zm2.14-2.28-.47-.16zm8.62-8.9-.25-.43zm8.44-3.52.28.41zm1.43-3.22.5.04zm10.56-5.83-.23.44zm3.01-.95h.5zm2.34-1.92.12-.49zm2.89-1.16.47.15zm11.85-13.96.5.07zm6.05-2.17-.11-.49zm1.29-3.05.5-.07zm11.24-5.55-.34-.37zm2.47-1.79.25.44zm6.31-10.74-.22-.45zm3.49-.8-.03-.5zm4.64-8.02-.28-.41zm3.26-1.1.06.5zm3.05-1.3-.36-.35zm2.57-5.77-.06-.5zm2.65-1.69.45.2zm1.52-2.66.4.3zm1.5-2.65.46.2zm4-4.5.5-.05zm4.33-4.26-.3-.4zm.6-3.32.48-.13zm4.77-7.68-.06-.5zm8.48-15.91-.32-.39zm3.65-1.2-.04-.5zm3.56-1.3.35.37zm.44-3.26.48-.15zm3.28-5.05.48-.14zm.5-3.2.33.36zm2.32-2.12-.33-.37zm5.03-7.53.47.17zm1.44-6.05.13.48zm2.71-1.96-.46-.2zm1.96-2.39.3.4zm3.09-5.2.5.04zm.76-2.99-.46-.2zm2.33-5.55.45-.2zm.83-2.94.22.45zm3.3-11.65.3.4zm6.09-10.51-.4-.3zm1.48-5.85.41-.3zm-1.19-3.6-.49-.11zm4.3-8.05-.15-.47zm3.6-5.17.33.38zm2.49-11.81-.46-.2zm-.95-3.35-.4.3zm-.58-3.25.4.3zm2.9-8.5.25.42zm3.46-2.31.3.4zm-1.69-6.49-.46.19zm3-5.5-.35.36zm-.88-3.22.38.32zm-.01-3.03-.42.28zM763 440l-.33-.38zm1.11-5.88-.28.42zm2.3-17.87-.42.27zm-1.41-3.12-.5.11zm1.47-2.92-.3-.4zm2-2.89.5.06zm.9-2.98-.45-.22zm-1.61-9.08-.5.11zm-1.96-9.04.38-.34zm.04-1.65-.05-.5zm2.24-1.65-.43-.25q.32-.54.08-1.05-.24-.56-1.28-1.27l.28-.42.27-.42a4.3 4.3 0 0 1 1.64 1.7q.44 1-.13 1.96zm-1.35-2.99-.28.42c-1.52-1-2.47-2.12-2.53-3.36l.5-.03.5-.02c.03.74.63 1.6 2.08 2.57zm-2.31-2.97-.5.03c-.04-.67.25-1.3.76-1.87a9 9 0 0 1 2.19-1.66l.24.44.25.43q-1.34.77-1.93 1.45c-.4.45-.53.83-.51 1.16zm2.7-3.06-.25-.44c.9-.51 1.35-.96 1.5-1.3a.6.6 0 0 0 .03-.42 1 1 0 0 0-.35-.51l.35-.36.35-.36q.44.43.6.96.16.55-.07 1.08c-.28.66-.98 1.25-1.92 1.78zm1.28-3.03-.35.36a5 5 0 0 1-1.73-3.27l.5-.03.5-.03q.05 1.24 1.43 2.61zm-1.58-2.94-.5.03a5.7 5.7 0 0 1 .91-3.33l.43.25.43.26a4.8 4.8 0 0 0-.77 2.76zm.84-3.05-.43-.25q.86-1.47.9-2.83l.5.01.5.01a6.7 6.7 0 0 1-1.04 3.32zm.96-3.07h-.5q.03-1.54.2-3.1l.5.06.5.05q-.17 1.5-.2 3zm.2-3.04-.5-.05q.15-1.47-.06-2.9l.5-.08.49-.07q.23 1.57.06 3.15zm-.07-3.03-.5.08a18 18 0 0 1-.2-3.1l.5.01h.5q-.03 1.5.2 2.94zm-.2-3.01-.5-.01c0-.3-.14-.66-.6-1.06a8 8 0 0 0-2.2-1.2l.17-.46.18-.47q1.63.62 2.51 1.38c.6.52.96 1.13.94 1.83zm-3.13-2.74-.18.47q-.83-.31-1.34-.72a1.6 1.6 0 0 1-.61-1.07 1.6 1.6 0 0 1 .44-1.15q.43-.5 1.2-.96l.26.43.26.43q-.68.43-.96.75c-.19.22-.21.36-.2.43 0 .06.04.19.25.37q.32.26 1.06.56zm-.22-3-.26-.43a6 6 0 0 0 1.81-1.53q.2-.33.2-.54a1 1 0 0 0-.13-.45l.42-.26.42-.27q.3.48.29 1.03-.04.53-.36 1.02a6.5 6.5 0 0 1-2.13 1.86zm2.04-3.21-.42.26c-.53-.84-1.55-1.67-3.18-2.47l.22-.45.22-.45q2.57 1.25 3.58 2.84zm-3.38-2.66-.22.45c-.86-.43-1.52-1-1.56-1.8-.03-.77.54-1.46 1.34-2.07l.3.4.3.4c-.76.58-.95 1-.94 1.23.01.2.2.54 1 .94zm-.13-3.02-.3-.4a4 4 0 0 0 1.36-1.5 1 1 0 0 0-.1-1l.42-.29.4-.29c.43.61.5 1.3.2 1.98a5 5 0 0 1-1.68 1.9zm1.38-3.19-.41.29q-.98-1.4-1.9-2.79l.41-.27.42-.28q.91 1.38 1.89 2.76zm-1.9-2.77-.42.27a2.7 2.7 0 0 1-.46-1.79q.12-.94.8-1.86l.4.3.4.3q-.55.77-.6 1.37-.07.58.3 1.13zm.33-3.08-.4-.3c.36-.5.42-.86.35-1.14-.09-.3-.36-.66-.98-1.03l.25-.43.26-.43c.73.43 1.25.96 1.43 1.63.18.68-.04 1.36-.51 2zm-.77-2.9-.26.43a4 4 0 0 1-1.55-1.52q-.44-.93-.05-1.92l.46.18.47.18q-.25.62.02 1.12.24.53 1.16 1.1zm-1.4-2.83-.46-.18q.6-1.6.9-3.11l.48.1.5.08q-.3 1.63-.95 3.29zm.92-3.2-.49-.09q.3-1.55.44-3.09l.5.05.49.05a35 35 0 0 1-.44 3.17zm.44-3.13-.5-.05q.15-1.28-1.03-2.43l.35-.35.35-.37a3.9 3.9 0 0 1 1.33 3.25zm-1.18-2.83-.35.35a9 9 0 0 1-2.07-2.83l.45-.2.46-.21q.6 1.29 1.86 2.53zm-1.97-2.68-.45.2q-.62-1.35-1.57-2.62l.4-.3.4-.3q1.01 1.35 1.68 2.8zm-1.62-2.72-.4.3a18 18 0 0 1-1.73-2.78l.45-.23.45-.22q.67 1.34 1.63 2.63zm-1.68-2.7-.44.22a4 4 0 0 1 .08-3.51l.45.2.46.21q-.69 1.53-.1 2.65zm.1-3.09-.46-.2a25 25 0 0 1 2.04-3.6l.41.29.42.27q-1.2 1.8-1.96 3.45zm2-3.51-.42-.28c.77-1.16 1.01-2.12.86-2.93l.49-.1.49-.09c.23 1.17-.16 2.4-1.01 3.68zm.93-3.3-.5.09c-.13-.7-.87-1.4-2.67-1.98l.15-.47.15-.48c1.84.6 3.11 1.46 3.36 2.74zm-3.02-2.36-.15.47c-.94-.3-1.68-.73-1.98-1.4-.32-.73-.04-1.48.5-2.18l.4.31.4.31c-.47.59-.48.94-.39 1.15.12.26.49.58 1.37.86zm-1.23-2.8-.4-.3c.47-.6.58-1.02.53-1.3s-.27-.59-.87-.9l.22-.44.23-.45c.74.38 1.28.9 1.4 1.61.13.7-.18 1.4-.72 2.1zm-.52-2.94-.22.44c-.74-.37-1.28-.89-1.43-1.6-.14-.69.13-1.4.64-2.1l.4.3.4.3c-.43.59-.52 1.01-.46 1.3s.3.6.9.91zm-.6-2.96-.41-.3q.64-.9.65-1.48.05-.55-.43-1.01l.35-.36.35-.36c.5.5.77 1.1.73 1.78a4 4 0 0 1-.84 2.02zm.16-3.15-.35.36a6 6 0 0 1-1.75-2.9l.48-.13.49-.13q.32 1.3 1.48 2.44zm-1.62-2.67-.48.12c-.3-1.15.04-2.42.87-3.76l.43.27.42.26c-.75 1.22-.96 2.2-.75 2.98zm.82-3.37-.43-.27c.35-.55.3-.86.17-1.06-.18-.26-.66-.56-1.62-.78l.11-.48.11-.5c1.01.24 1.82.6 2.22 1.2.46.66.31 1.43-.14 2.15zm-1.77-2.6-.1.5c-1.02-.24-1.82-.6-2.26-1.17-.48-.63-.4-1.39-.01-2.12l.44.24.44.23c-.29.53-.23.83-.07 1.05.21.28.71.57 1.67.79zm-1.93-2.55-.44-.24a21 21 0 0 0 1.55-3.57l.48.15.47.15q-.58 1.83-1.62 3.74zm1.59-3.66-.48-.16q.49-1.53-.4-2.52l.37-.33.38-.33q1.26 1.49.6 3.5zm-.5-3-.38.32q-.93-1.09-3.37-1.82l.14-.48.14-.48c1.72.5 3.03 1.2 3.84 2.12zm-3.6-1.98-.15.48c-1.72-.5-2.91-1.31-3.17-2.58l.5-.1.48-.1c.14.7.83 1.35 2.47 1.82zm-2.83-2.2-.49.1c-.23-1.15.1-2.43.88-3.81l.44.24.43.25c-.72 1.27-.93 2.3-.77 3.12zm.83-3.47-.44-.24c.72-1.27.87-2.26.62-3.02l.48-.16.47-.15c.37 1.14.08 2.44-.7 3.82zm.66-3.42-.48.16q-.45-1.37-1.2-2.66l.44-.25.43-.25q.8 1.36 1.28 2.85zm-1.24-2.75-.43.25q-.77-1.32-1.58-2.6l.42-.27.43-.27q.81 1.3 1.59 2.64zm-1.59-2.62-.42.26a6 6 0 0 0-2.32-2.07l.24-.44.25-.44a7 7 0 0 1 2.68 2.42zm-2.5-2.25-.24.44a3 3 0 0 1-1.36-1.41 3 3 0 0 1-.05-1.93l.48.13.48.14q-.21.78.01 1.27a2 2 0 0 0 .93.92zm-1.17-2.77-.48-.13q.5-1.77.57-3.36l.5.02.5.02a16 16 0 0 1-.61 3.59zm.59-3.47-.5-.02q.02-.66-.33-1.12a3 3 0 0 0-1.22-.87l.2-.46.2-.46q1.04.44 1.62 1.19.57.76.53 1.76zm-1.85-2.47-.2.46c-1.36-.58-2.3-1.4-2.71-2.52l.46-.17.47-.17c.28.76.97 1.42 2.17 1.94zm-2.45-2.23-.46.17q-.54-1.46-.75-3.06l.5-.07.49-.06q.2 1.5.7 2.85zm-.72-2.96-.5.07a4 4 0 0 0-1.22-2.37l.34-.36.35-.36a5 5 0 0 1 1.53 2.96zm-1.38-2.66-.34.36q-1.2-1.14-2.14-2.4l.4-.3.4-.3q.9 1.2 2.03 2.28zm-2.08-2.34-.4.3c-.77-1.04-.64-2.4.09-3.89l.45.22.45.22c-.67 1.36-.63 2.26-.19 2.85zm.14-3.37-.45-.22q1.01-2.08.99-3.59h1q-.01 1.82-1.1 4.03zm1.04-3.8h-.5q0-.59-.48-.95a4 4 0 0 0-1.8-.6l.07-.49.07-.5q1.42.19 2.26.79.87.66.88 1.74zm-2.7-2.04-.07.5c-1.84-.25-3.17-.9-3.54-2.18l.48-.14.48-.14c.2.66.94 1.23 2.7 1.47zm-3.13-1.82-.48.14c-.33-1.15-.04-2.53.73-4.08l.45.22.45.23c-.73 1.46-.9 2.55-.67 3.35zm.7-3.72-.45-.22c.35-.7.4-1.18.3-1.47-.09-.27-.33-.53-.93-.72l.15-.48.14-.47c.78.24 1.37.67 1.6 1.36.2.67.03 1.43-.36 2.23zm-.93-2.89-.15.48a98 98 0 0 1-3.99-1.33l.17-.47.17-.47q1.9.68 3.94 1.32zm-3.97-1.32-.17.47a2.6 2.6 0 0 1-1.55-1.28 2.8 2.8 0 0 1 0-2.07l.48.15.47.15c-.2.62-.18 1.05-.04 1.35s.42.56.98.76zm-1.25-2.73-.47-.16c.42-1.3.44-2.34.15-3.15l.47-.17.47-.17c.4 1.1.32 2.37-.14 3.8zm.15-3.48-.47.17c-.29-.79-.93-1.42-2.02-1.86l.19-.47.18-.46a4.2 4.2 0 0 1 2.59 2.45zm-2.3-2.16-.2.47a5.2 5.2 0 0 1-2.75-2.26l.44-.24.44-.24q.6 1.13 2.25 1.81zm-2.5-2.03-.45.24a6.4 6.4 0 0 1-.72-3.33l.5.01.5.02q-.05 1.64.6 2.82zm-.67-3.08-.5-.01a5.7 5.7 0 0 0-.59-2.84l.45-.24.44-.23q.76 1.47.7 3.34zm-.64-3.09-.45.23c-.35-.66-1.18-1.16-2.75-1.34l.06-.5.05-.5c1.69.2 2.95.77 3.53 1.88zm-3.14-1.6-.06.49c-.87-.1-1.6-.37-2.03-.9-.46-.56-.53-1.28-.33-2.06l.48.12.49.12c-.15.6-.06.96.13 1.18.2.24.61.46 1.37.54zm-1.94-2.35-.48-.12q.22-.94.05-1.53-.15-.57-.67-.94l.3-.4.28-.42q.8.58 1.06 1.5.23.93-.05 2.03zm-.8-3-.3.4a2.8 2.8 0 0 1-1.07-1.47 4 4 0 0 1-.02-2.01l.49.1.49.1a3 3 0 0 0 0 1.52q.17.57.7.95zm-.9-2.98-.5-.1q.18-.92-.02-1.47a1.7 1.7 0 0 0-.78-.89l.25-.43.25-.43q.88.5 1.22 1.4.3.9.07 2.02zm-1.05-2.89-.25.43a6.5 6.5 0 0 1-2.4-2.32l.43-.25.43-.25a5.5 5.5 0 0 0 2.04 1.96zm-2.22-2.14-.43.25a25 25 0 0 1-1.4-2.75l.47-.2.46-.2q.6 1.38 1.33 2.65zm-1.36-2.7-.46.2a7 7 0 0 1-.46-3.59l.5.05.5.05a6 6 0 0 0 .38 3.1zm-.42-3.34-.5-.05c.12-1.18-.18-2-.82-2.54l.33-.38.33-.37c.94.81 1.3 1.98 1.16 3.39zm-.99-2.97-.33.38a6.4 6.4 0 0 0-2.97-1.33l.1-.49.1-.49q2.13.43 3.43 1.56zm-3.2-1.44-.1.49c-.77-.16-1.39-.52-1.7-1.16-.31-.62-.28-1.38-.04-2.21l.48.14.48.14c-.2.72-.17 1.2-.03 1.49.13.27.42.5 1 .62zm-1.36-2.74-.48-.14c.21-.71.07-1-.09-1.14-.22-.19-.74-.32-1.74-.2l-.05-.5-.06-.5c1.03-.12 1.93-.04 2.5.43.62.53.65 1.34.4 2.19zm-2.36-1.98.05.5a5.4 5.4 0 0 1-2.59-.2 1.9 1.9 0 0 1-1.23-1.58l.5-.06.49-.07q.06.55.62.78.63.28 2.1.13zm-3.28-1.34-.5.06q-.23-1.8.28-4.1l.48.1.5.11q-.48 2.19-.26 3.76zm.26-3.93-.48-.1c.14-.68.01-1-.17-1.16-.22-.2-.69-.35-1.57-.28l-.04-.5-.03-.5c.95-.07 1.77.05 2.3.54.58.51.66 1.28.48 2.1zm-2.26-2.04.04.5a4.7 4.7 0 0 1-2.39-.33 2 2 0 0 1-1.15-1.6l.5-.07.5-.07q.07.59.6.85.56.3 1.87.22zm-3-1.5-.5.08q-.1-.7-.53-1.06-.4-.39-1.31-.55l.08-.49.08-.5q1.1.18 1.82.8.71.64.85 1.65zm-2.26-2.02-.08.5a3.7 3.7 0 0 1-1.83-.78 2.7 2.7 0 0 1-.91-1.6l.49-.1.5-.1q.12.69.57 1.04.44.4 1.34.55zm-2.33-1.98-.5.1a12 12 0 0 1 .02-4.03l.5.08.49.08a11 11 0 0 0-.02 3.68zm.01-3.85-.49-.08c.1-.64-.05-.94-.25-1.09-.25-.19-.74-.3-1.63-.2l-.07-.49-.06-.5c.96-.11 1.8-.04 2.37.4.6.46.75 1.21.63 2.03zm-2.44-1.86.07.5c-.96.11-1.82.01-2.33-.56-.51-.59-.49-1.44-.22-2.34l.48.14.48.14c-.25.84-.14 1.22.01 1.4s.56.33 1.45.22zm-2-2.26-.48-.14c.25-.83.26-1.4.14-1.75-.11-.32-.34-.54-.81-.65l.11-.49.12-.48c.74.17 1.28.6 1.52 1.3.23.64.15 1.45-.12 2.35zm-1.04-3.03-.11.49q-1.84-.44-3.52-.98l.15-.48.16-.48q1.64.54 3.44.97zm-3.48-.97-.15.47a3.5 3.5 0 0 1-2.44-2.47l.48-.14.49-.13q.36 1.33 1.78 1.8zm-2.1-2.14-.49.14a2 2 0 0 0-.64-1.03 3 3 0 0 0-1.29-.54l.09-.49.09-.5a4 4 0 0 1 1.75.76q.7.6.97 1.53zm-2.33-1.92-.09.5a2.2 2.2 0 0 1-1.65-1.1 3.4 3.4 0 0 1-.23-2.18l.5.08.49.08c-.13.74-.06 1.23.11 1.54.16.29.44.5.96.59zm-1.48-2.7-.5-.08c.13-.74.05-1.2-.13-1.48-.16-.26-.46-.45-1.03-.5l.05-.5.05-.5c.77.07 1.4.37 1.78.97.36.57.42 1.33.28 2.17zm-1.6-2.56-.06.5a4.8 4.8 0 0 1-3.31-1.5l.37-.32.38-.33q.79.95 2.66 1.15zm-3-1.32-.37.33a8 8 0 0 0-2.22-1.78l.25-.44.24-.43q1.43.8 2.48 2zm-2.34-1.89-.25.44c-.63-.36-.95-.97-1.02-1.73q-.09-1.1.44-2.68l.48.16.47.15a6 6 0 0 0-.4 2.28c.06.51.25.79.52.95zm-.35-3.81-.48-.16q.23-.72.26-1.18 0-.44-.1-.6c-.1-.15-.36-.34-1.16-.21l-.08-.5-.08-.49c.9-.14 1.75-.02 2.18.7q.29.5.24 1.16-.04.63-.3 1.43zm-1.56-2.64.08.49a9 9 0 0 1-4.37-.18l.17-.47.17-.47a8 8 0 0 0 3.87.13zm-4.12-.16-.17.47q-.92-.33-1.46-1.09a4 4 0 0 1-.6-1.83l.5-.05.49-.04q.08.86.44 1.35.33.5.97.72zm-1.74-2.5-.5.05q-.08-.86-.45-1.29-.33-.44-1.04-.61l.12-.49.11-.48q1 .22 1.6.95.57.75.66 1.83zm-1.87-2.34-.12.49a5.6 5.6 0 0 1-2.95-1.67l.37-.34.37-.33a4.6 4.6 0 0 0 2.44 1.36zm-2.7-1.52-.37.34a6.5 6.5 0 0 1-1.47-3.17l.5-.1.49-.09a5.5 5.5 0 0 0 1.22 2.69zm-1.34-2.92-.5.1q-.34-1.8-.73-3.6l.5-.1.48-.11q.38 1.8.74 3.61zm-.74-3.6-.49.1a2.7 2.7 0 0 0-.58-1.23 2 2 0 0 0-1.07-.65l.14-.48.13-.48a3.2 3.2 0 0 1 2.36 2.63zm-2-2.26-.14.48a13 13 0 0 1-3.06-1.29l.25-.43.26-.43q1.26.75 2.83 1.19zm-2.95-1.24-.25.43a5.4 5.4 0 0 0-3.17-.56l-.03-.5-.04-.5q2.24-.17 3.75.7zm-3.45-.62.03.5a3 3 0 0 1-2-.48 2.5 2.5 0 0 1-.93-1.77l.5-.07.5-.06q.12.82.53 1.1.39.32 1.33.28zm-2.4-1.82-.5.07a7 7 0 0 0-1.05-3.05l.41-.28.42-.27q.94 1.41 1.21 3.47zm-1.13-3.26-.42.28a21 21 0 0 1-1.6-2.87l.45-.2.46-.22q.68 1.48 1.52 2.74zm-1.57-2.8-.45.21a3 3 0 0 0-1.95-1.71l.14-.48.15-.48a4 4 0 0 1 2.57 2.25zm-2.25-1.98-.15.48a8 8 0 0 1-2.9-1.52l.32-.39.32-.39a7 7 0 0 0 2.55 1.34zM628 88.65l-.32.39a5.6 5.6 0 0 1-1.8-3.04l.49-.12.49-.12a4.6 4.6 0 0 0 1.46 2.5zm-1.63-2.77-.48.12c-.12-.45-.35-.66-.67-.74-.39-.1-1-.04-1.87.29l-.18-.47-.17-.47a4.3 4.3 0 0 1 2.46-.32c.74.18 1.2.71 1.4 1.47zm-3.2-.8.18.47c-.94.35-1.8.47-2.46.16-.71-.34-.99-1.08-1.01-1.95l.5-.01.5-.01c.02.7.23.96.45 1.07.27.13.78.13 1.67-.2zm-2.79-1.33-.5.01c-.02-.71-.21-1.05-.43-1.2-.23-.17-.64-.24-1.38-.05l-.13-.48-.13-.49c.85-.22 1.63-.22 2.22.2s.83 1.15.85 2zm-2.44-1.72.13.48a4 4 0 0 1-2.23.04 2.2 2.2 0 0 1-1.34-1.42l.47-.16.47-.17q.23.65.74.8c.36.13.89.14 1.63-.06zm-2.97-1.06-.47.16q-.27-.73-.72-1.07a2 2 0 0 0-1.2-.43l.03-.5.04-.5q1.01.08 1.74.64.72.57 1.05 1.53zm-2.36-1.83-.04.5a1.9 1.9 0 0 1-1.65-1.13q-.44-.98-.26-2.51l.5.05.5.05c-.1.95-.02 1.59.16 1.98q.23.51.83.56zm-1.45-3.1-.5-.04c.1-.96-.02-1.52-.21-1.8-.16-.24-.42-.38-1-.3l-.07-.5-.07-.5c.81-.1 1.53.08 1.97.73.4.6.48 1.46.37 2.47zm-1.78-2.64.07.5q-2.13.31-3.84-.04l.1-.5.1-.48q1.5.32 3.5.03zm-3.67-.03-.1.49a2.2 2.2 0 0 1-1.53-1.17 5 5 0 0 1-.46-2.3h1q.01 1.25.34 1.83.29.55.86.66zm-1.59-2.98h-.5c0-.84-.17-1.29-.38-1.5s-.52-.32-1.15-.18l-.1-.49-.11-.49c.8-.17 1.54-.08 2.07.45.5.5.68 1.3.67 2.21zm-2.14-2.17.11.49c-1.52.33-2.8.12-3.67-.81l.37-.34.37-.34c.53.57 1.38.8 2.72.51zm-3.2-.66-.36.34c-.55-.6-1.38-.86-2.6-.68l-.07-.5-.08-.49c1.44-.21 2.64.08 3.49.99zm-3.03-.83.07.5c-1.45.2-2.64-.13-3.43-1.15l.4-.3.4-.3c.5.64 1.27.93 2.48.75zm-2.96-.95-.4.3a4.5 4.5 0 0 0-2.2-1.57l.17-.47.16-.47q1.6.54 2.66 1.9zm-2.43-1.74-.16.47a8 8 0 0 1-2.77-1.59l.33-.37.33-.38q1.05.94 2.43 1.4zm-2.6-1.5-.33.38q-1.01-.9-2.48-1.14l.08-.5.09-.49q1.72.3 2.97 1.38zm-2.73-1.26-.08.5c-.74-.13-1.24-.62-1.51-1.35a7 7 0 0 1-.24-2.75l.5.03.5.04q-.12 1.6.17 2.33c.18.47.43.66.75.71zm-1.33-3.57-.5-.03q.11-1.6-.2-2.28-.14-.34-.32-.46a1 1 0 0 0-.45-.16l.04-.5.03-.5q.55.04 1 .37.41.34.63.86.4 1.04.27 2.74zm-1.43-3.42-.04.5a4.6 4.6 0 0 1-3.1-1.4l.37-.35.36-.35a3.6 3.6 0 0 0 2.44 1.1zm-2.77-1.25-.36.34a7 7 0 0 0-2.32-1.63l.2-.45.2-.46a8 8 0 0 1 2.64 1.85zm-2.48-1.74-.2.45c-.74-.32-1.8-.27-3.25.33l-.2-.46-.19-.46c1.56-.65 2.93-.81 4.04-.32zm-3.64.32.19.46c-1.56.65-2.93.84-4.04.41l.18-.46.17-.47c.77.29 1.85.2 3.3-.4zm-3.67.4-.18.47c-1.2-.45-1.85-1.64-2.14-3.3l.5-.08.49-.08c.26 1.52.81 2.27 1.5 2.53zm-1.83-2.9-.49.08c-.26-1.52-.82-2.27-1.51-2.52l.17-.47.17-.47c1.2.44 1.87 1.63 2.16 3.29zm-1.83-2.91-.17.47c-.8-.3-1.84-.26-3.18.23l-.17-.47-.17-.47c1.46-.53 2.76-.64 3.86-.23zm-3.52.23.17.47a3.2 3.2 0 0 1-2.1.15 2.4 2.4 0 0 1-1.41-1.36l.45-.21.45-.22c.23.48.51.73.83.84.34.1.8.09 1.44-.14zm-2.89-.95-.45.2c-.48-1.02-1.15-1.55-1.98-1.7l.1-.5.08-.49c1.22.23 2.12 1.02 2.7 2.27zm-2.34-2-.09.5c-1.29-.24-2.1-1.28-2.53-2.81l.48-.14.48-.13c.38 1.35 1 1.95 1.75 2.1zm-2.14-2.45-.48.14c-.18-.63-.43-.82-.67-.85-.32-.06-.85.08-1.66.63l-.28-.42-.28-.41c.85-.57 1.66-.9 2.38-.8.78.14 1.24.76 1.47 1.58zm-3.09-.5.28.42c-.85.57-1.66.9-2.37.81-.79-.1-1.28-.68-1.53-1.47l.47-.16.48-.15c.19.58.45.76.7.8.34.03.89-.12 1.7-.66zm-3.15-.4-.47.16c-.42-1.29-1.05-1.87-1.81-2l.08-.5.1-.5c1.26.23 2.1 1.21 2.58 2.69zm-2.2-2.34-.08.5a8 8 0 0 1-2.99-1.2l.28-.42.28-.42q1.17.8 2.6 1.05zm-2.79-1.12-.27.41a24 24 0 0 0-2.55-1.5l.22-.44.23-.45q1.37.69 2.65 1.56zm-2.6-1.53-.23.44c-.68-.34-1.64-.28-3 .43l-.23-.45-.23-.44c1.47-.77 2.8-.99 3.92-.43zm-3.46.42.23.45c-.76.39-1.5.56-2.16.34-.68-.23-1.12-.8-1.4-1.57l.47-.17.47-.17c.22.6.5.87.77.96.3.1.74.06 1.39-.28zm-2.86-.95-.47.17c-.23-.62-.5-.93-.8-1.07-.27-.13-.67-.14-1.24.09l-.18-.47-.19-.46c.72-.3 1.43-.35 2.04-.06.62.3 1.03.88 1.3 1.63zm-2.7-1.28.2.47c-.76.3-1.5.3-2.09-.18-.55-.44-.87-1.2-1.04-2.15l.5-.1.49-.08c.16.87.41 1.34.68 1.55.22.18.53.25 1.08.03zm-2.43-1.95-.5.09c-.16-.88-.42-1.3-.66-1.47-.2-.14-.54-.18-1.14.12l-.23-.44-.23-.45c.75-.38 1.52-.49 2.15-.06.6.4.93 1.17 1.1 2.12zm-2.53-1.7.23.44c-.75.38-1.49.51-2.14.2s-1.05-.98-1.3-1.81l.49-.14.48-.15c.21.73.5 1.07.76 1.2.25.12.64.12 1.25-.19zm-2.72-1.31-.48.14a3.3 3.3 0 0 0-.8-1.5 1.3 1.3 0 0 0-1.04-.35l-.04-.5-.05-.5q1.05-.09 1.81.62.71.7 1.08 1.94zm-2.37-2.21.05.5a3.9 3.9 0 0 1-3.24-1.2l.36-.35.36-.35a2.9 2.9 0 0 0 2.43.9zm-2.83-1.05-.36.35a2.9 2.9 0 0 0-2.42-.9l-.04-.5-.04-.5q1.88-.15 3.22 1.2zm-2.82-1.05.04.5q-1.65.15-3.28.25l-.04-.5-.04-.5q1.63-.11 3.28-.25zm-3.28.25.03.5a3.8 3.8 0 0 1-3.18-1.31l.37-.34.37-.33a2.8 2.8 0 0 0 2.37.99zm-2.78-1.15-.37.34a24 24 0 0 0-2.34-2.26l.32-.39.32-.38q1.27 1.06 2.44 2.36zm-2.39-2.3-.32.38c-.64-.55-1.46-.66-2.56-.2l-.2-.46-.19-.46c1.35-.56 2.59-.5 3.6.35zm-3.07-.28.19.46q-1.04.46-1.99.17a2.8 2.8 0 0 1-1.5-1.3l.42-.26.43-.26c.3.5.63.76.96.87.34.1.75.09 1.3-.14zm-2.88-.93-.43.26a2.6 2.6 0 0 0-1-1.02 1.8 1.8 0 0 0-1.19-.15l-.09-.49-.09-.5a2.8 2.8 0 0 1 1.84.25q.82.45 1.39 1.39zm-2.7-1.4.08.5q-.96.18-1.82-.19a3.6 3.6 0 0 1-1.46-1.21l.4-.3.4-.3q.5.67 1.06.9.54.24 1.24.1zm-2.8-1.2-.4.3q-1-1.33-2.29-1.34l.02-.5.01-.5c1.23.03 2.25.64 3.06 1.74zm-2.67-1.54-.02.5q-1.56-.04-3.11-.13l.02-.5.03-.5q1.54.09 3.1.13zm-3.1-.13-.03.5a6.5 6.5 0 0 1-3.12-.99l.26-.42.27-.43q1.23.77 2.64.84zm-2.88-.91-.27.42q-1.29-.8-2.67-1.29l.17-.47.17-.47q1.48.53 2.86 1.38zm-2.77-1.34-.17.47-2.86-1.04.17-.47.18-.47 2.85 1.04zm-2.86-1.04-.17.47q-1.35-.5-2.8-.5v-1q1.64 0 3.15.56zm-2.97-.54v.5c-.81 0-1.9.6-3.28 2.1l-.36-.35-.37-.34c1.4-1.51 2.75-2.41 4-2.4zm-3.64 2.25.36.34q-.54.6-1.1.9-.54.32-1.15.23-.6-.15-.96-.67a4 4 0 0 1-.59-1.26l.48-.14.48-.15q.21.67.44.96c.14.2.26.26.36.28q.13.04.47-.12.35-.18.84-.7zm-2.96-.6-.48.14c-.28-.93-.6-1.32-.85-1.44-.2-.1-.52-.09-1.1.4l-.33-.4-.32-.38c.69-.56 1.44-.87 2.17-.53.67.31 1.1 1.09 1.4 2.06zm-2.76-1.3.32.4c-.67.55-1.34.9-2 .96a2.2 2.2 0 0 1-1.82-.73l.36-.35.36-.34q.48.5 1 .42c.39-.03.87-.24 1.46-.74zm-3.14.28-.36.35a3.4 3.4 0 0 0-2.43-1.17v-.5l.01-.5a4.4 4.4 0 0 1 3.14 1.48zm-2.78-1.32-.01.5q-1.5-.02-3.03.14l-.05-.5-.05-.5q1.58-.15 3.14-.14zm-3.1.14.06.5q-1.5.15-3.08.59l-.13-.48-.13-.49q1.64-.45 3.24-.61zm-3.15.6.13.49q-.53.16-1.04-.02a2 2 0 0 1-.89-.6c-.5-.53-.9-1.38-1.21-2.46l.47-.14.49-.14q.46 1.53.98 2.07.26.26.47.32a1 1 0 0 0 .47 0zm-2.54-2.73-.47.14q-.23-.74-.47-1.11c-.16-.25-.3-.34-.4-.37-.07-.02-.19-.03-.38.08q-.3.14-.75.66l-.38-.32-.38-.33q.51-.6 1.04-.9.56-.32 1.17-.14c.38.13.68.42.92.77q.34.55.58 1.38zm-2.85-.92.38.32c-1.3 1.52-2.57 2.45-3.8 2.55l-.04-.5-.05-.5c.82-.06 1.86-.72 3.13-2.2zm-3.46 2.37.04.5c-1.31.11-2.37-.74-3.2-2.19l.44-.24.43-.25c.75 1.31 1.51 1.75 2.24 1.69zm-2.72-1.93-.44.24c-.37-.64-.72-.94-1.03-1.03-.29-.1-.65-.05-1.13.27l-.28-.41-.28-.42c.64-.43 1.32-.61 2-.4.65.21 1.17.76 1.59 1.5zm-2.88-.93.28.41c-1.2.81-2.4 1.13-3.55.83l.13-.48.13-.49c.78.21 1.68.03 2.73-.69zm-3.14.76-.13.48c-1.13-.3-2.12-1.15-2.99-2.44l.41-.28.42-.28c.8 1.18 1.62 1.82 2.42 2.03zm-2.7-2.24-.42.28a3.4 3.4 0 0 0-1.15-1.15 1.6 1.6 0 0 0-1.14-.15l-.11-.5-.11-.48a2.6 2.6 0 0 1 1.83.25q.84.46 1.5 1.47zm-2.82-1.51.1.49a5.6 5.6 0 0 1-3.3-.24l.19-.46.18-.47q1.3.5 2.72.19zm-3.01-.21-.18.46-2.91-1.12.18-.47.19-.46 2.9 1.12zm-2.9-1.13-.2.47c-.7-.29-1.56-.1-2.6.85l-.34-.37-.34-.37c1.19-1.07 2.43-1.53 3.65-1.04zm-3.14.95.34.37a19 19 0 0 1-3.35 2.48l-.25-.43-.24-.44a18 18 0 0 0 3.16-2.35zm-3.25 2.42.24.43q-.98.56-1.97.11c-.61-.3-1.13-.9-1.58-1.69l.43-.25.44-.24c.4.72.8 1.11 1.15 1.28.3.15.63.15 1.04-.08zm-2.88-1.4-.43.25c-.41-.72-.79-1.05-1.1-1.15-.26-.08-.6-.04-1.05.34l-.32-.38-.32-.39c.62-.5 1.3-.75 2-.52.67.22 1.2.81 1.66 1.6zm-2.9-.94.32.38a5.3 5.3 0 0 1-3.44 1.43l.01-.5.01-.5c.84.01 1.76-.36 2.78-1.2zm-3.1 1.3-.01.5c-1.22-.01-2.3-.74-3.27-1.99l.39-.3.4-.31c.87 1.13 1.7 1.6 2.49 1.6zm-2.89-1.8-.4.31c-.41-.53-.78-.72-1.07-.74s-.68.12-1.16.6l-.36-.36-.35-.36c.59-.58 1.23-.93 1.93-.88s1.3.48 1.8 1.13zm-2.99-.2.36.36c-.6.59-1.29.92-2.03.73-.69-.18-1.26-.78-1.74-1.6l.43-.25.43-.26c.44.75.84 1.06 1.13 1.14.26.06.6 0 1.07-.47zm-2.98-.76-.43.25c-.44-.76-.8-.93-1-.93-.23 0-.62.2-1.14.97l-.4-.28-.42-.28c.54-.8 1.19-1.4 1.95-1.4.79 0 1.4.6 1.87 1.41zm-2.98 0 .41.29c-.54.8-1.18 1.4-1.94 1.43-.79.03-1.41-.54-1.9-1.32l.42-.27.42-.27c.45.71.8.87 1.02.86.25-.01.64-.23 1.16-1zm-3.01.13-.43.27c-.45-.72-.86-1.09-1.21-1.23-.31-.12-.64-.1-1.03.17l-.29-.41-.28-.42c.63-.42 1.3-.54 1.98-.26a4 4 0 0 1 1.68 1.61zm-2.96-1.2.29.41q-1.5 1.01-3 2.43l-.34-.37-.34-.36a25 25 0 0 1 3.11-2.53zm-3.05 2.47.34.37a2.7 2.7 0 0 1-1.86.84c-.67 0-1.29-.33-1.84-.87l.35-.36.35-.36c.44.43.82.6 1.15.6s.71-.16 1.17-.58zm-3-.02-.36.36-2.99-2.99.36-.35.35-.35 2.98 2.97zm-3-2.98-.35.35c-.43-.43-.76-.5-1.03-.44-.31.08-.73.4-1.2 1.12l-.42-.28-.42-.28c.52-.79 1.11-1.36 1.8-1.53.73-.18 1.4.13 1.98.7zm-3 .75.42.28c-.53.79-1.11 1.36-1.79 1.56-.72.2-1.4-.04-1.99-.58l.34-.37.33-.37c.42.38.76.44 1.04.36.33-.1.75-.43 1.23-1.16zm-3.02.9-.34.36q-.68-.6-1.22-.63-.52-.08-1.15.37l-.3-.4-.29-.41a2.6 2.6 0 0 1 1.84-.56q.95.1 1.8.89zm-3-.3.29.4a3 3 0 0 1-1.79.63q-.94 0-1.8-.63l.28-.4.3-.42q.66.46 1.22.45.56.01 1.2-.44zm-3.02 0-.29.4a4.5 4.5 0 0 0-2.72-.95l-.02-.5-.01-.5a5.5 5.5 0 0 1 3.33 1.13zm-3.03-1.05.02.5c-.75.02-1.59.58-2.5 2.01l-.42-.26-.42-.27c.96-1.5 2.05-2.44 3.3-2.48zm-2.9 2.25.42.26c-.49.78-1.11 1.34-1.9 1.3-.75-.04-1.4-.63-1.95-1.44l.42-.28.4-.28c.53.76.93.99 1.19 1 .21.01.56-.14 1-.83zm-3.01-.16-.42.28c-.52-.76-.97-1.15-1.34-1.3-.31-.11-.62-.07-.99.23l-.31-.39-.32-.39q.91-.76 1.98-.37c.65.25 1.25.84 1.8 1.66zm-3.06-1.18.31.39c-.56.46-1.2.68-1.88.57a3.5 3.5 0 0 1-1.86-1.13l.36-.34.36-.35c.5.53.94.77 1.3.83.34.06.7-.03 1.09-.36zm-3.07-.51-.36.34c-.49-.5-.82-.57-1.05-.5-.28.08-.67.4-1.1 1.22l-.44-.23-.44-.23c.46-.87 1-1.53 1.7-1.73.76-.2 1.46.16 2.05.78zm-2.95.83.45.23c-.46.86-1.04 1.53-1.83 1.58-.78.06-1.46-.52-2.04-1.31l.4-.3.41-.29c.55.75.94.92 1.16.9.23-.01.58-.22 1.01-1.04zm-3.01.2-.4.3c-.55-.75-1-1.08-1.34-1.16-.27-.07-.58 0-.95.44l-.38-.33-.37-.33c.53-.61 1.2-.94 1.94-.75.69.17 1.32.74 1.9 1.54zm-3.07-.75.38.33c-.51.57-1.1.95-1.76 1.03a2.7 2.7 0 0 1-1.92-.62l.3-.4.3-.4c.48.35.88.46 1.21.42.34-.03.7-.23 1.12-.7zm-3 .34-.3.4a1 1 0 0 0-.5-.23.6.6 0 0 0-.4.14c-.34.26-.73.87-1.11 1.97l-.48-.16-.47-.17c.4-1.13.86-1.98 1.45-2.43q.47-.37 1.06-.35.57.04 1.05.43zm-2.79 2.12.48.16A10 10 0 0 1 344 7.39c-.49.64-1.07 1.07-1.75 1.14l-.05-.5-.05-.5c.3-.03.66-.22 1.05-.75q.6-.76 1.17-2.4zm-2.64 3.48.05.5-2.97.29-.05-.5-.05-.5 2.97-.29zm-2.97.3.05.49c-1.2.12-2.41-.5-3.6-1.65l.35-.36.34-.36c1.1 1.06 2.04 1.45 2.81 1.37zm-3.2-1.52-.35.36c-1.1-1.06-1.96-1.3-2.66-1.06l-.16-.47-.16-.48c1.23-.41 2.47.13 3.67 1.29zm-3.17-1.17.16.47a4.4 4.4 0 0 1-3.45-.32l.21-.45.22-.45q1.49.7 2.7.27zm-3.08-.3-.22.45a1.6 1.6 0 0 0-1.18-.16q-.53.14-1.1.86l-.4-.3-.4-.3c.47-.6 1-1.04 1.62-1.22a2.6 2.6 0 0 1 1.9.22zm-2.9.85.4.3c-.47.6-1 1.03-1.63 1.2q-.95.26-1.91-.23l.22-.45.22-.45q.7.33 1.2.17.54-.13 1.1-.85zm-2.92.82-.22.45a3.5 3.5 0 0 0-2.72-.3l-.16-.47-.16-.48a4.5 4.5 0 0 1 3.48.35zm-3.1-.32.16.47a6.4 6.4 0 0 1-3.28.2l.09-.48.1-.5q1.45.28 2.77-.17zm-3.03.19-.1.49q-.52-.12-1 .32-.54.46-1.04 1.75l-.47-.18-.47-.18q.53-1.41 1.3-2.13a2.1 2.1 0 0 1 1.87-.57zm-2.6 2.38.46.18c-.35.92-.8 1.64-1.4 2-.66.4-1.38.32-2.06-.08l.25-.43.26-.43c.45.27.77.25 1.02.1.32-.2.66-.66 1-1.52zm-2.75 1.67-.25.43a4.8 4.8 0 0 0-2.9-.8l-.06-.5-.05-.5a5.8 5.8 0 0 1 3.52.94zm-3.21-.87.05.5q-1.47.15-2.92.44l-.1-.49-.1-.49q1.5-.3 3.02-.46zm-2.97.45.1.5c-.82.16-1.6.72-2.33 1.77l-.4-.28-.42-.29a4.8 4.8 0 0 1 2.95-2.19zm-2.64 1.99.41.28a5.6 5.6 0 0 1-2.85 2.33l-.15-.47-.15-.48c.81-.26 1.6-.88 2.33-1.95zm-2.59 2.13.15.48q-1.5.48-3.07.54l-.02-.5-.02-.5q1.44-.05 2.81-.5zm-2.94.52.02.5q-1.38.06-2.62.78l-.25-.43-.25-.43q1.44-.84 3.08-.92zm-2.85.85.25.43c-1.08.63-2.3.55-3.58-.1l.23-.44.23-.45c1.06.54 1.9.54 2.62.13zm-3.1-.11-.23.45a2 2 0 0 0-1.28-.25c-.33.07-.68.28-1 .72l-.4-.3-.4-.31q.66-.87 1.6-1.1.95-.17 1.94.34zm-2.91.61.4.3c-.48.63-1.12.94-1.87.82-.7-.1-1.4-.57-2.13-1.26l.35-.36.35-.36c.67.64 1.2.93 1.58 1 .33.04.63-.06.92-.44zm-3.25-.5-.35.36a5 5 0 0 0-1.73-1.2q-.68-.23-1.11.04l-.25-.43-.25-.43q.91-.51 1.95-.12 1 .36 2.08 1.42zm-3.44-1.23.25.43a24 24 0 0 0-2.57 1.74l-.3-.4-.31-.4q1.3-1 2.68-1.8zm-2.63 1.77.3.4q-1.25.96-2.44 2.13l-.35-.36-.35-.36q1.23-1.2 2.54-2.2zm-2.49 2.17.35.36q-.75.74-1.78.7a4 4 0 0 1-2.04-.81l.29-.41.28-.42c.62.43 1.12.61 1.53.63q.56.04 1.02-.4zm-3.18-.16-.29.4c-.6-.4-.94-.4-1.15-.3-.25.13-.54.52-.78 1.4l-.48-.13-.48-.13c.25-.94.64-1.7 1.29-2.02.7-.36 1.46-.13 2.17.36zm-2.7 1.37.48.13c-.25.94-.6 1.7-1.09 2.18a2 2 0 0 1-1.89.57l.1-.5.1-.49a1 1 0 0 0 .99-.29q.47-.44.83-1.73zm-2.4 2.38-.1.5q-1.65-.34-3.3-.55l.07-.5.07-.5q1.66.23 3.36.56zm-3.33-.55-.06.5a72 72 0 0 0-3.27-.36l.05-.5.04-.5q1.65.15 3.3.37zm-3.29-.36-.04.5q-.56-.06-.99.4-.46.47-.8 1.7l-.48-.13-.48-.12q.34-1.38 1.03-2.14.74-.8 1.8-.7zm-2.31 2.47.48.13c-.23.9-.6 1.64-1.17 2.04-.6.44-1.32.42-2.05.11l.2-.46.2-.46c.5.22.83.17 1.07 0 .28-.2.57-.65.79-1.48zm-2.55 1.82-.19.46q-1.86-.78-3.72-1.51l.18-.47.19-.47q1.87.74 3.74 1.53zm-3.73-1.52-.18.47c-.5-.2-.82-.14-1.05.05-.28.22-.55.7-.74 1.57l-.49-.1-.49-.11c.21-.94.55-1.7 1.1-2.14.58-.47 1.3-.5 2.03-.2zm-2.46 1.98.5.1c-.21.94-.6 1.72-1.34 1.98-.73.26-1.53-.08-2.3-.66l.3-.4.3-.4c.72.55 1.15.6 1.37.52.21-.07.5-.37.69-1.24zm-2.85 1.02-.3.4c-1.48-1.11-2.44-1.24-3.03-.9l-.25-.44-.25-.43c1.17-.67 2.61-.17 4.13.97zm-3.58-.94.25.44a8 8 0 0 0-2.25 2l-.4-.3-.39-.31a9 9 0 0 1 2.54-2.26zm-2.4 2.14.4.3q-.6.8-1.48 1.1-.87.3-1.88.07l.11-.48.1-.5q.79.17 1.34-.03.56-.18 1.02-.77zm-2.85.99-.1.48q-.75-.14-1.2.12a2.2 2.2 0 0 0-.88 1.07l-.45-.2-.46-.21c.31-.68.74-1.22 1.3-1.53a2.7 2.7 0 0 1 1.9-.22zm-2.63 1.47.45.2c-.61 1.35-1.54 2.19-2.8 2.33l-.06-.5-.06-.5c.81-.08 1.5-.6 2.01-1.74zm-2.41 2.04.05.5q-1.65.18-3.52-.2l.1-.49.1-.49q1.74.34 3.2.18zm-3.37-.19-.1.5q-.76-.15-1.25.1-.5.25-.89 1l-.44-.24-.45-.22a3 3 0 0 1 1.33-1.42 3 3 0 0 1 1.9-.2zm-2.68 1.36.44.23a14 14 0 0 1-2.05 3.04l-.37-.34-.37-.33q1.05-1.15 1.9-2.82zm-1.98 2.93.37.34a4.2 4.2 0 0 1-3.07 1.43l-.02-.5-.02-.5q1.42-.05 2.37-1.1zm-2.72 1.27.02.5q-1.68.07-3.53-.24l.08-.5.08-.49q1.77.3 3.33.23zm-3.43-.23-.09.49a1 1 0 0 0-.52.04 1 1 0 0 0-.36.31 4 4 0 0 0-.46 2.06l-.5-.02-.5-.02c.04-1.09.22-1.97.63-2.57q.3-.47.8-.69.51-.2 1.08-.1zm-1.93 2.88.5.02a7 7 0 0 1-.5 2.67c-.31.69-.79 1.19-1.46 1.37l-.13-.48-.13-.49c.3-.08.58-.3.8-.8q.35-.77.42-2.31zm-1.6 3.58.14.48q-1.4.38-2.65 1.09l-.25-.43-.24-.44q1.35-.78 2.88-1.19zm-2.75 1.14.24.43q-1.46.83-3.37.62l.05-.5.06-.5q1.64.17 2.77-.49zm-3.08.55-.05.5q-.76-.07-1.26.2-.5.26-.88.94l-.44-.24-.44-.24q.49-.91 1.3-1.34a3 3 0 0 1 1.83-.31zm-2.63 1.4.44.24a3.4 3.4 0 0 1-2.93 1.9l-.02-.5-.02-.5q1.36-.03 2.1-1.38zm-2.5 1.64.01.5q-1.36.03-2.07 1.38l-.44-.23-.44-.24a3.3 3.3 0 0 1 2.91-1.91zm-2.5 1.65.44.23a2.1 2.1 0 0 1-1.56 1.18 4 4 0 0 1-2.22-.43l.2-.46.21-.45c.73.33 1.26.42 1.64.36q.52-.07.85-.67zm-3.14.52-.2.46c-.73-.33-1.2-.37-1.5-.27-.26.1-.52.34-.68.93l-.48-.13-.48-.14c.21-.77.63-1.36 1.31-1.6.66-.23 1.43-.07 2.24.3zm-2.86.99.48.13q-.3 1.12-.99 1.78a2.6 2.6 0 0 1-1.72.7l-.02-.5-.02-.5q.67-.04 1.08-.43.44-.4.7-1.32zm-2.25 2.11.02.5a12 12 0 0 1-3.98-.6l.15-.48.14-.48a11 11 0 0 0 3.65.56zm-3.81-.58-.15.48c-1.34-.41-2.26-.3-2.9.17l-.3-.4-.3-.4c1-.74 2.3-.79 3.8-.33zm-3.34.25.3.4q-.44.3-.68 1.2-.23.92-.14 2.49l-.5.03-.5.03a9 9 0 0 1 .17-2.78q.26-1.16 1.05-1.77zm-1.02 4.12.5-.03q.05.84-.07 1.47-.12.65-.5 1.08c-.56.61-1.4.58-2.23.25l.18-.46.18-.47c.7.27 1 .15 1.14 0q.15-.14.25-.6t.05-1.21zm-2.12 2.3-.18.47c-1.5-.58-2.62-.67-3.44-.39l-.16-.47-.16-.48c1.14-.38 2.53-.2 4.12.41zm-3.78-.4.16.48q-1.4.48-2.6 1.28l-.27-.41-.28-.41a12 12 0 0 1 2.83-1.4zm-2.71 1.35.28.41-2.48 1.7-.28-.4-.29-.41q1.23-.87 2.49-1.71zm-2.48 1.7.28.42a37 37 0 0 1-2.57 1.64l-.25-.44-.25-.43q1.28-.75 2.5-1.6zm-2.54 1.62.25.44c-.65.38-1.12 1.23-1.23 2.77l-.5-.03-.5-.04c.12-1.67.65-2.94 1.73-3.57zM172.1 68l.5.03c-.07.86-.3 1.58-.77 2.07-.5.5-1.18.66-1.94.57l.06-.5.05-.5c.56.07.9-.05 1.12-.27.23-.25.42-.69.48-1.44zm-2.16 2.17-.05.5c-.57-.07-.93.05-1.17.26-.25.21-.46.6-.55 1.27l-.5-.07-.5-.07c.12-.8.39-1.46.9-1.9.5-.44 1.18-.57 1.93-.48zm-2.27 1.96.5.07q-.15 1.19-.77 1.94-.66.75-1.7.82l-.05-.5-.04-.5q.69-.05 1.03-.48.4-.42.54-1.42zm-2.02 2.34.04.5q-1.72.15-3.49.26l-.03-.5-.04-.5 3.48-.26zm-3.48.26.03.5q-.68.05-.99.48c-.23.3-.4.8-.43 1.53l-.5-.03-.5-.03a3.7 3.7 0 0 1 .64-2.07q.63-.81 1.71-.88zm-1.89 2.48.5.03c-.04.84-.27 1.56-.76 2.03-.5.5-1.2.63-1.98.54l.06-.5.06-.5c.6.08.95-.05 1.17-.26.23-.22.41-.64.45-1.37zm-2.18 2.1-.06.5q-2.05-.26-4.06-.44l.04-.5.05-.5q2.03.18 4.1.44zm-4.08-.44-.04.5c-.55-.05-.82.1-.97.35-.2.3-.3.86-.2 1.79l-.5.06-.49.05c-.11-.99-.04-1.84.34-2.44.41-.65 1.1-.88 1.9-.8zm-1.7 2.7.5-.06c.21 1.95.02 3.48-.8 4.41l-.37-.33-.38-.32c.52-.6.76-1.75.55-3.65zm-.67 4.03.38.32q-1.04 1.2-2.31 2.09l-.29-.41-.28-.42q1.17-.81 2.12-1.91zm-2.22 2 .29.4c-.98.69-2.33.79-3.93.45l.1-.49.1-.48c1.5.3 2.5.16 3.16-.3zm-3.53.36-.1.5c-.72-.15-1.09-.04-1.28.13-.2.19-.37.58-.34 1.35l-.5.02-.5.02c-.03-.88.14-1.65.67-2.13.54-.49 1.31-.55 2.15-.37zm-2.22 2 .5-.02c.04.89-.15 1.67-.78 2.1-.6.43-1.44.39-2.34.13l.15-.48.14-.48c.82.24 1.26.17 1.48.01.2-.14.39-.47.35-1.24zm-2.47 1.73-.15.48c-.82-.24-1.38-.25-1.74-.13-.31.11-.54.34-.65.81l-.49-.12-.48-.12a2 2 0 0 1 1.3-1.51 4 4 0 0 1 2.35.1zm-3.03 1.04.49.12q-.25 1.05-1.02 1.63-.79.56-1.91.53v-1q.88 0 1.32-.34.44-.3.64-1.06zm-2.44 1.78v.5c-1.24 0-2.09.33-2.64.95l-.37-.34-.37-.33c.8-.9 1.96-1.29 3.39-1.28zm-3.01 1.11.37.34a6 6 0 0 0-1.31 2.7l-.5-.12-.48-.11a7 7 0 0 1 1.55-3.14zm-1.43 2.92.49.11q-.42 1.82-.94 3.5l-.47-.15-.48-.14q.5-1.65.91-3.43zm-.92 3.46.47.15a3.8 3.8 0 0 1-2.28 2.57l-.19-.46-.18-.47q1.25-.48 1.7-1.94zm-2 2.26.19.46c-1.11.45-2.54.48-4.22.18l.08-.5.1-.49c1.6.3 2.8.23 3.67-.12zm-3.95.14-.09.5c-1.59-.29-2.63-.1-3.26.4l-.3-.4-.32-.4c.97-.75 2.37-.9 4.06-.59zm-3.66.5.31.4c-.6.46-.92 1.36-.77 2.9l-.5.05-.5.05c-.16-1.67.16-3.01 1.15-3.8zm-.96 3.35.5-.05q.25 2.48-.22 4.27l-.49-.12-.48-.13q.41-1.57.2-3.92zm-.2 4.1.48.12a3.5 3.5 0 0 1-.88 1.6 3.4 3.4 0 0 1-1.6.88l-.12-.49-.13-.48q.73-.2 1.14-.62.43-.41.62-1.14zm-2.12 2.11.12.49q-1.8.45-4.32.12l.07-.5.06-.49q2.4.3 3.94-.1zm-4.13.12-.07.5c-.76-.1-1.09.05-1.23.24-.17.2-.27.65-.08 1.51l-.48.11-.5.11c-.2-.93-.19-1.77.27-2.35.48-.6 1.28-.73 2.15-.62zm-1.86 2.36.48-.1c.41 1.82.43 3.33-.04 4.46l-.46-.2-.47-.2c.36-.83.39-2.1 0-3.85zm-.02 4.16.46.2c-.51 1.2-1.61 1.8-3.1 1.9l-.03-.5-.03-.5c1.24-.08 1.92-.54 2.23-1.3zm-2.67 1.6.03.5a9 9 0 0 0-3.3.77l-.22-.45-.22-.45q1.56-.76 3.68-.87zm-3.5.82.23.45a4.7 4.7 0 0 0-2.02 1.84l-.43-.25-.43-.26a5.7 5.7 0 0 1 2.44-2.23zm-2.22 2.04.43.25q-.7 1.2-.8 3.03l-.5-.03-.5-.02a7.5 7.5 0 0 1 .94-3.49zm-.87 3.25.5.03a3.5 3.5 0 0 1-.57 1.84q-.53.77-1.48 1.1l-.16-.47-.17-.47q.67-.24.99-.72.34-.48.39-1.33zm-1.71 2.5.16.47q-.65.24-.93.72-.3.48-.29 1.4l-.5.02-.5.01q-.04-1.12.43-1.94.5-.82 1.46-1.15zm-1.56 2.6h.5c.03.8-.24 1.47-.9 1.85-.62.36-1.46.4-2.44.23l.08-.49.08-.5c.91.15 1.47.07 1.78-.1.25-.15.42-.41.4-.97zm-2.76 1.59-.08.5c-.91-.15-1.34-.02-1.51.15-.15.15-.28.5-.06 1.31l-.48.13-.49.13c-.24-.89-.23-1.73.33-2.28.54-.53 1.4-.59 2.37-.43zm-2.13 2.1.48-.14c.24.9.23 1.74-.31 2.3-.53.54-1.4.62-2.36.5l.07-.5.07-.5c.9.12 1.33-.02 1.5-.2.16-.16.28-.53.06-1.34zm-2.12 2.16-.07.5c-.9-.13-1.47-.05-1.8.13-.28.15-.46.4-.47.9h-.5l-.5-.02c.02-.77.33-1.4 1-1.76a4 4 0 0 1 2.4-.25zm-2.84 1.53h.5q-.03 2.11-1.46 3.25l-.3-.4-.3-.4c.66-.51 1.03-1.3 1.06-2.47zm-1.26 2.85.3.4a5 5 0 0 0-1.64 2.18l-.47-.18-.46-.19a6 6 0 0 1 1.96-2.6zm-1.8 2.4.46.18a7 7 0 0 1-1.84 2.67l-.33-.37-.34-.37a6 6 0 0 0 1.58-2.3zm-1.71 2.48.33.37a9 9 0 0 1-2.94 1.74l-.18-.47-.17-.47a8 8 0 0 0 2.62-1.54zm-2.79 1.64.18.47q-1.62.6-2.9 1.45l-.28-.42-.27-.41q1.39-.92 3.1-1.56zm-3 1.5.28.42c-.26.17-.42.45-.39.98q.03.82.8 2.3l-.45.23-.44.23a7 7 0 0 1-.9-2.7c-.06-.79.2-1.46.83-1.87zm.24 3.94.44-.23c.54 1.03.83 1.94.76 2.67q-.06.59-.46 1-.4.4-1 .52l-.1-.5-.11-.48a1 1 0 0 0 .5-.24.6.6 0 0 0 .17-.4c.05-.43-.13-1.12-.64-2.12zm-.37 3.47.11.49a3 3 0 0 0-1.32.6q-.45.39-.6 1.03l-.48-.1-.5-.11q.22-.95.92-1.57a4 4 0 0 1 1.77-.83zm-2.3 2.02.5.1c-.29 1.28-1.2 2.1-2.58 2.48l-.13-.48-.13-.48c1.1-.3 1.67-.9 1.86-1.73zm-2.21 2.1.13.48q-.8.24-1.13.67-.34.42-.34 1.2h-.5l-.5.01q-.02-1.06.55-1.82.6-.74 1.66-1.02zm-1.84 2.36.5-.01q.02 1.86-.1 3.62l-.5-.04-.5-.03q.12-1.71.1-3.54zm-.1 3.57.5.04a3 3 0 0 1-.6 1.73q-.56.73-1.5 1.1l-.2-.47-.17-.47q.73-.29 1.07-.76.35-.46.4-1.2zm-1.8 2.4.2.47q-1.53.6-2.04 1.78l-.45-.2-.46-.21a4.5 4.5 0 0 1 2.58-2.3zm-2.3 2.04.46.21q-.62 1.4-1.31 2.74l-.45-.22-.44-.23q.67-1.33 1.29-2.7zm-1.3 2.72.45.23c-.58 1.14-1.91 1.65-3.68 1.74l-.02-.5-.03-.5c1.67-.08 2.51-.55 2.84-1.2zm-3.25 1.47.02.5c-.8.04-1.23.24-1.43.47-.18.2-.28.54-.1 1.18l-.49.13-.48.13c-.22-.8-.17-1.55.32-2.1.46-.53 1.23-.76 2.13-.8zm-2 2.28.48-.13c.21.77.24 1.48.01 2.1q-.36.93-1.35 1.37l-.21-.46-.2-.45q.66-.3.82-.81c.13-.35.15-.84-.03-1.5zm-1.07 2.88.2.46q-1.63.74-3.2 1.54l-.22-.44-.23-.45a70 70 0 0 1 3.24-1.56zm-3.22 1.56.23.44a4.4 4.4 0 0 0-2.03 1.94l-.44-.22-.45-.22a5.4 5.4 0 0 1 2.46-2.39zm-2.24 2.16.44.22c-.15.32-.2.76-.07 1.36q.19.9.95 2.18l-.43.26-.43.25a9 9 0 0 1-1.07-2.48 3 3 0 0 1 .16-2.01zm.89 4.02.43-.26c.53.92.85 1.74.86 2.46q0 .54-.26 1.01-.27.47-.76.72l-.24-.44-.24-.43q.27-.16.38-.35a1 1 0 0 0 .12-.5q.02-.68-.72-1.96zm.03 3.5.24.43a4.7 4.7 0 0 0-2.01 1.96l-.45-.22-.44-.23q.76-1.49 2.42-2.38zm-2.22 2.17.45.22c-.57 1.11-1.8 1.72-3.49 1.97l-.07-.49-.08-.5c1.57-.23 2.4-.76 2.75-1.43zm-3.11 1.7.07.5c-.75.1-1 .35-1.1.57-.09.25-.05.72.38 1.5l-.43.25-.44.24c-.47-.84-.7-1.66-.43-2.35.27-.72 1-1.07 1.87-1.2zm-1.08 2.82.43-.24c.91 1.65 1.17 3.14.22 4.16l-.37-.35-.36-.34c.46-.49.53-1.38-.36-2.99zm.28 3.57.37.35q-.92.95-.89 2.47l-.5.01-.5.02a4.3 4.3 0 0 1 1.16-3.19zm-1.02 2.83h.5a4.7 4.7 0 0 1-1.04 3.2l-.39-.31-.38-.32q.85-1.01.81-2.55zm-.93 2.89.39.31a7 7 0 0 0-1.34 2.46l-.48-.16-.48-.15a8 8 0 0 1 1.53-2.78zm-1.43 2.61.48.16c-.4 1.22-1.59 1.92-3.25 2.25l-.1-.5-.1-.48c1.55-.31 2.27-.89 2.5-1.58zm-2.87 1.92.1.49c-.76.15-1.24.39-1.53.66q-.4.37-.36 1.02l-.5.04-.5.03c-.04-.7.17-1.33.67-1.8a4 4 0 0 1 2.02-.93zm-2.29 2.2.5-.03q.06.99-.35 1.8-.43.8-1.3 1.33l-.26-.43-.26-.42q.67-.42.94-.95.28-.52.23-1.26zm-1.4 2.67.26.43q-.61.38-.71.9c-.08.36-.04.84.22 1.46l-.46.2-.46.18a3.5 3.5 0 0 1-.28-2.07q.24-.98 1.16-1.52zm-.69 2.98.46-.19c.3.74.41 1.45.24 2.08a2.4 2.4 0 0 1-1.27 1.5l-.24-.45-.24-.44q.67-.37.79-.87.16-.51-.2-1.44zm-.81 2.94.24.44q-1.48.82-1.73 2.06l-.49-.1-.49-.11a4.1 4.1 0 0 1 2.23-2.73zm-1.98 2.4.49.1a17 17 0 0 1-.94 2.97l-.46-.2-.46-.19q.56-1.34.88-2.8zm-.9 2.88.45.19c-.32.76-.28 1.73.21 2.97l-.46.19-.46.18c-.56-1.38-.67-2.64-.21-3.73zm.2 3.35.46-.19c.3.75.33 1.48-.08 2.08-.4.58-1.11.93-2 1.13l-.1-.5-.11-.48c.79-.18 1.2-.44 1.38-.7.16-.24.21-.6-.01-1.16zm-1.72 2.53.1.49c-.78.18-1.11.44-1.22.68-.1.22-.1.6.28 1.27l-.43.25-.43.25c-.45-.75-.65-1.52-.33-2.2.32-.66 1.04-1.03 1.92-1.23zm-1.27 2.7.43-.26c.44.75.66 1.49.53 2.16-.14.7-.64 1.2-1.34 1.54l-.21-.45-.22-.45c.52-.25.73-.54.79-.83.06-.33-.03-.8-.41-1.47zm-.6 2.99.22.45c-1.12.54-1.63 1.22-1.72 2.02l-.5-.05-.5-.06c.14-1.25.97-2.18 2.29-2.81zm-2 2.42.5.05c-.15 1.34-1.3 2.18-2.97 2.65l-.13-.48-.14-.48c1.56-.44 2.16-1.09 2.24-1.8zm-2.6 2.22.13.48c-.76.22-1.16.5-1.33.77-.15.25-.19.6.04 1.15l-.46.2-.45.2c-.32-.73-.36-1.45.02-2.07.37-.6 1.05-.97 1.91-1.21zm-1.62 2.6.46-.2c.59 1.36.69 2.61.18 3.7l-.46-.22-.45-.21c.35-.74.33-1.67-.18-2.87zm.18 3.28.46.22q-.63 1.32-1 2.73l-.48-.13-.48-.12q.38-1.5 1.05-2.91zm-1.02 2.82.49.13a4.7 4.7 0 0 0 .36 2.99l-.46.19-.47.19a5.7 5.7 0 0 1-.4-3.62zm.39 3.3.46-.19c.29.7.34 1.4.03 2.02a3 3 0 0 1-1.64 1.35l-.2-.46-.19-.46c.65-.27.99-.57 1.13-.87.14-.29.16-.67-.06-1.2zm-1.35 2.72.2.46c-.65.27-.97.57-1.1.87-.13.28-.13.65.12 1.2l-.46.2-.45.22c-.33-.7-.41-1.4-.12-2.04.28-.62.86-1.06 1.62-1.37zm-1.24 2.73.46-.2q.91 1.95.7 3.64l-.5-.07-.5-.06q.2-1.32-.61-3.1zm.66 3.37.5.07a5 5 0 0 1-1.55 2.99l-.35-.36-.35-.36a4 4 0 0 0 1.26-2.4zm-1.4 2.7.35.36a3.8 3.8 0 0 0-1.2 2.4l-.5-.05-.5-.04q.17-1.73 1.5-3.03zm-1.34 2.7.5.05c-.11 1.22-.86 2.2-2.1 2.96l-.26-.43-.26-.42c1.06-.65 1.55-1.39 1.62-2.2zm-1.86 2.58.27.43c-1.05.64-1.47 1.37-1.45 2.2h-.5l-.5.01c-.03-1.27.67-2.3 1.92-3.06zm-1.68 2.63h.5q.02 1.6-.19 3.15l-.5-.07-.49-.07q.21-1.46.18-3zm-.18 3.08.49.07q-.24 1.64-1.3 3.02l-.4-.3-.4-.3q.92-1.2 1.11-2.56zm-1.21 2.79.4.3q-.97 1.27-1.71 2.6l-.44-.25-.44-.24q.78-1.4 1.8-2.72zm-1.75 2.65.44.25c-.41.73-.42 1.6.1 2.66l-.46.21-.45.22c-.61-1.28-.67-2.5-.07-3.58zm.08 3.13.45-.22q.92 1.89.41 3.55l-.48-.15-.47-.15c.25-.8.16-1.73-.36-2.82zm.38 3.18.48.15c-.36 1.13-1.31 2.05-2.71 2.8l-.24-.45-.23-.44c1.29-.68 1.98-1.43 2.23-2.21zm-2.47 2.5.24.44c-.6.32-.73.62-.72.86.01.3.24.78.93 1.44l-.35.36-.34.36c-.73-.7-1.22-1.4-1.24-2.13-.02-.8.5-1.37 1.25-1.77zm.1 3.1.35-.36a6 6 0 0 1 1.5 2.04q.4 1.04-.14 1.95l-.42-.26-.43-.26q.29-.44.05-1.08a5 5 0 0 0-1.25-1.67zm1.29 3.37.42.26q-.7 1.13-.18 2.58l-.47.17-.47.17a3.8 3.8 0 0 1 .27-3.44zm-.23 3.01.47-.17a3.5 3.5 0 0 1-.46 3.45l-.4-.3-.4-.3a2.5 2.5 0 0 0 .32-2.5zm-.39 2.98.4.3q-1.04 1.39-2.78 2.63l-.29-.41-.29-.4q1.64-1.17 2.56-2.42zm-2.67 2.52.3.4c-.5.35-.66.68-.67.97-.01.32.14.75.63 1.31l-.38.33-.38.33c-.56-.65-.9-1.32-.87-2.01.03-.7.45-1.28 1.08-1.74zm-.12 3.01.38-.32c.57.66.87 1.4.54 2.14-.3.67-1.05 1.14-2.01 1.49l-.17-.47-.17-.47c.91-.33 1.31-.68 1.43-.96.1-.2.09-.54-.38-1.08zm-1.26 2.84.17.47q-.65.24-.93.48c-.18.15-.23.28-.24.36-.01.1 0 .24.16.47q.21.33.8.8l-.31.39-.31.4a5 5 0 0 1-1.01-1.04 1.7 1.7 0 0 1-.33-1.13c.05-.41.28-.75.6-1.01q.47-.4 1.23-.66zM8.2 320l.3-.4q.67.52 1.03 1.03c.24.34.4.72.39 1.11-.01.83-.7 1.4-1.56 1.78l-.2-.46-.21-.46c.8-.36.97-.68.97-.87 0-.12-.04-.29-.2-.52q-.26-.36-.83-.82zm-.05 3.06.2.46c-.8.36-1.1.7-1.18.96-.07.23 0 .58.51 1.13l-.36.34-.36.35c-.6-.64-.96-1.36-.75-2.1.2-.7.87-1.21 1.74-1.6zm-.83 2.9.36-.35c.6.63.98 1.3.95 2-.03.73-.47 1.32-1.14 1.78l-.28-.4-.29-.42c.53-.37.7-.7.71-.99s-.15-.73-.67-1.28zm-.11 3.02.28.41c-.54.38-.75.73-.8 1.03-.04.3.06.7.47 1.2l-.4.31-.39.31c-.5-.62-.77-1.29-.66-1.97s.55-1.24 1.21-1.7zm-.44 2.95.39-.31c.95 1.2 1.4 2.4 1.18 3.57l-.5-.1-.48-.08c.14-.78-.13-1.7-.99-2.77zm1.08 3.17.49.09c-.22 1.2-1.21 2.2-2.73 3.06l-.24-.43-.25-.44c1.43-.8 2.1-1.61 2.24-2.37zm-2.48 2.72.24.43c-.69.4-.81.71-.8.92.02.26.26.7 1.05 1.28l-.3.4-.3.4c-.82-.6-1.4-1.28-1.45-2.02-.05-.8.53-1.4 1.31-1.85zm.19 3.03.3-.4a4.6 4.6 0 0 1 1.66 1.91 1.9 1.9 0 0 1-.42 1.99l-.37-.34-.38-.33q.23-.27.28-.49a1 1 0 0 0-.05-.48c-.15-.4-.55-.88-1.32-1.46zm1.17 3.16.37.34q-1.2 1.34-2.08 2.73l-.42-.27-.42-.27q.92-1.45 2.17-2.86zm-2.13 2.8.42.27q-.9 1.42-1.97 2.86l-.4-.3-.4-.3a49 49 0 0 0 1.93-2.8zm-1.95 2.83.4.3q-.44.6-.48 1.2-.05.58.3 1.26l-.44.24-.45.23q-.46-.9-.4-1.81.06-.9.67-1.72zm-.22 3 .44-.24q.75 1.47 2.72 3.08l-.31.39-.32.38a11 11 0 0 1-2.98-3.38zm2.85 3.23.31-.4c.72.59 1.2 1.27 1.09 2.04-.12.75-.76 1.33-1.62 1.79l-.24-.44-.23-.44c.8-.44 1.06-.8 1.1-1.06.03-.22-.08-.58-.73-1.1zm-.46 2.99.24.44c-.8.43-1.04.8-1.07 1.03-.03.21.1.58.78 1.1l-.3.4-.3.4c-.75-.57-1.27-1.25-1.17-2.02.09-.76.74-1.34 1.59-1.8zm-.35 2.96.3-.4c1.45 1.12 2.27 2.33 1.95 3.63l-.49-.12-.49-.12c.17-.67-.19-1.52-1.58-2.59zm1.76 3.1.49.13c-.3 1.15-1.2 2.2-2.59 3.17l-.28-.41-.29-.41c1.3-.91 1.98-1.78 2.18-2.6zm-2.38 2.89.28.4c-.63.45-.86.82-.9 1.11-.04.27.07.63.55 1.1l-.35.35-.35.36c-.59-.57-.94-1.23-.84-1.94.1-.7.6-1.3 1.32-1.79zm-.42 2.96.35-.36c1.12 1.09 1.73 2.24 1.64 3.44l-.5-.03-.5-.04c.06-.79-.32-1.66-1.34-2.65zm1.5 3.05.49.03c-.1 1.24-1.04 2.34-2.56 3.34l-.27-.42-.28-.42c1.45-.95 2.06-1.82 2.11-2.57zm-2.34 2.95.27.42c-1.44.95-1.92 1.8-1.85 2.51l-.5.05-.5.04c-.12-1.3.79-2.44 2.3-3.44zm-2.08 2.98.5-.05c.07.77.73 1.66 2.3 2.66l-.26.42-.27.43c-1.63-1.03-2.66-2.16-2.77-3.42zm2.54 3.03.26-.42c1.63 1.03 2.69 2.13 2.93 3.34l-.49.1-.49.1c-.16-.8-.9-1.7-2.48-2.7zm2.7 3.02.5-.1c.13.67-.08 1.32-.53 1.9a7 7 0 0 1-2.06 1.66l-.25-.43-.25-.44q1.27-.75 1.77-1.4c.32-.42.4-.77.33-1.1zm-2.34 3.03.25.43q-1.28.75-1.78 1.4c-.33.43-.41.79-.35 1.11l-.5.1-.48.09c-.13-.68.09-1.32.54-1.91a7 7 0 0 1 2.07-1.66zm-2.37 3.04.49-.1q.27 1.44.97 2.87l-.45.22-.44.22q-.77-1.54-1.06-3.12zm1.01 2.99.45-.22q.76 1.54 1.06 3.1l-.5.1-.49.09q-.26-1.42-.96-2.85zm1.01 2.97.5-.09q.3 1.63-.27 3.27l-.47-.16-.47-.17q.48-1.4.22-2.75zm-.24 3.02.47.16q-.46 1.36-.03 2.68l-.48.16-.48.15q-.52-1.64.05-3.32zm-.04 3 .48-.16q.45 1.4 1.5 2.77l-.4.3-.4.31A10 10 0 0 1 2.3 404zm1.58 2.92.4-.3a3.7 3.7 0 0 1 .72 3.42l-.48-.15-.48-.14c.25-.85.1-1.67-.56-2.53zm.64 2.97.48.15a10 10 0 0 1-1.87 3.3l-.39-.3-.38-.32a9 9 0 0 0 1.68-2.97zm-1.78 3.14.39.32q-.58.74-.67 1.32t.23 1.16l-.43.25-.43.25a2.7 2.7 0 0 1-.36-1.81q.16-.93.89-1.8zm-.48 3.05.43-.25q.82 1.41 1.86 2.8l-.4.3-.4.3a29 29 0 0 1-1.92-2.9zm1.89 2.85.4-.3q.66.88.4 1.91a4 4 0 0 1-1.3 1.86l-.33-.37-.34-.37c.6-.54.9-1 1-1.38q.16-.52-.23-1.05zm-.83 3.1.33.37c-.6.53-.8.95-.8 1.24-.01.28.14.61.67 1l-.3.41-.3.4c-.66-.5-1.1-1.1-1.07-1.84.02-.7.47-1.36 1.13-1.95zm-.1 3.02.3-.4c1.25.92 2.06 1.95 2.33 3.09l-.48.11-.49.12c-.2-.82-.8-1.67-1.96-2.52zm2.15 2.8.48-.11q.37 1.53.32 3.12l-.5-.01-.5-.02q.04-1.45-.29-2.86zm.3 3h.5q-.04 1.46.33 2.85l-.48.12-.49.13q-.4-1.53-.36-3.12zm.35 2.97.48-.12q.43 1.61-.14 3.32l-.47-.15-.48-.16q.48-1.45.12-2.76zm-.13 3.05.47.15q-.46 1.44.03 2.68l-.46.19-.47.18a4.8 4.8 0 0 1-.05-3.36zm.04 3.02.46-.19q.54 1.39 1.4 2.73l-.41.27-.42.27a16 16 0 0 1-1.5-2.9zm1.45 2.8.42-.26q.87 1.35 2.05 2.63l-.37.34-.37.34q-1.23-1.35-2.15-2.77zm2.1 2.71.37-.34q.4.42.48.98.07.54-.2 1.07a6 6 0 0 1-1.96 2.02l-.3-.4-.28-.42a5 5 0 0 0 1.64-1.64q.14-.3.1-.5a1 1 0 0 0-.22-.43zm-1.6 3.32.29.4q-.67.49-.93.84c-.18.24-.2.38-.2.45.01.07.05.18.25.34q.3.23 1.03.47l-.15.48-.14.47q-.83-.25-1.34-.63c-.34-.25-.6-.6-.64-1.02s.13-.82.4-1.17q.4-.51 1.14-1.04zm.3 2.98.14-.48c1.07.33 1.89.75 2.38 1.28q.38.42.48.96.09.55-.16 1.06l-.45-.2-.46-.2a1 1 0 0 0 .08-.5 1 1 0 0 0-.23-.44c-.31-.34-.92-.69-1.93-1zm2.39 2.62.45.2q-.29.71-.16 1.24.12.54.73 1.09l-.34.37-.33.37q-.8-.7-1.03-1.6-.2-.92.22-1.87zm.68 2.9.34-.37a6 6 0 0 1 1.96 2.91l-.48.14-.48.13a5 5 0 0 0-1.67-2.44zm1.82 2.68.48-.14q.42 1.48.58 3.01l-.5.06-.5.05q-.15-1.46-.54-2.85zm.56 2.93.5-.06q.08.97-.54 1.95a9 9 0 0 1-1.81 2.02l-.33-.37-.33-.38a8 8 0 0 0 1.62-1.8q.46-.79.4-1.31zm-2.18 3.54.33.37a5 5 0 0 0-1.4 1.7c-.18.43-.14.75.05 1.04l-.41.28-.42.28q-.59-.93-.14-2c.28-.66.86-1.35 1.66-2.05zm-1.43 3.39.41-.28a8 8 0 0 0 2.62 2.29l-.25.43-.26.43a9 9 0 0 1-2.94-2.6zm2.78 2.44.25-.43c.7.4 1.18.95 1.3 1.65.1.69-.18 1.39-.7 2.07l-.4-.3-.4-.3c.44-.58.55-1.01.5-1.32-.04-.29-.25-.61-.8-.94zm.46 2.99.4.3c-.44.58-.56 1.01-.52 1.33.03.3.23.6.74.93l-.27.42-.26.43c-.67-.42-1.12-.96-1.2-1.66-.09-.69.2-1.38.7-2.05zm.35 2.98.27-.42a7 7 0 0 1 2.64 2.66l-.44.23-.45.23a6 6 0 0 0-2.28-2.27zm2.47 2.47.44-.23q.77 1.5.6 3.23l-.5-.04-.49-.05a5 5 0 0 0-.5-2.68zm.55 2.96.5.04c-.08.83.3 1.57 1.3 2.22l-.28.42-.28.42c-1.22-.8-1.86-1.85-1.74-3.15zm1.52 2.68.27-.42q.95.6 1.29 1.5.31.91-.06 1.91l-.47-.17-.47-.17q.25-.74.06-1.23c-.13-.34-.4-.68-.9-1zm1.03 2.82.47.17a16 16 0 0 1-2.16 3.86l-.4-.3-.4-.3q1.42-1.95 2.02-3.6zm-2.1 3.73.41.3c-.46.62-.63 1.1-.63 1.47 0 .34.15.65.55.95l-.3.4-.3.4a2.2 2.2 0 0 1-.95-1.74c0-.67.31-1.37.82-2.07zm.03 3.12.3-.4q1.38 1.07 3.79 1.85l-.15.48-.16.47a14 14 0 0 1-4.09-2zm3.94 1.93.15-.48c.87.28 1.55.72 1.8 1.42.24.71-.04 1.47-.56 2.2l-.4-.3-.41-.3c.46-.63.5-1.03.42-1.27-.08-.25-.38-.55-1.16-.8zm.98 2.84.4.3c-.46.64-.58 1.1-.53 1.4.04.28.23.57.79.85l-.22.45-.23.44c-.72-.35-1.23-.87-1.33-1.6-.1-.69.2-1.41.72-2.13zm.44 3 .22-.45c.7.35 1.23.83 1.45 1.47.21.65.08 1.35-.27 2.05l-.45-.22-.44-.23c.28-.56.3-.97.2-1.28-.1-.3-.37-.61-.94-.9zm.95 2.85.45.22c-.6 1.2-.7 2.16-.42 2.92l-.47.17-.47.17c-.4-1.11-.2-2.37.47-3.7zm-.44 3.31.47-.17c.28.79.94 1.49 2.1 2.07l-.23.45-.22.45a5 5 0 0 1-2.6-2.63zm2.34 2.35.23-.45c.68.35 1.19.81 1.44 1.42.25.62.2 1.3-.07 1.99l-.46-.18-.47-.18q.28-.79.07-1.25c-.13-.32-.42-.63-.96-.9zm1.14 2.78.46.18q-.68 1.8-.95 3.46l-.5-.08-.5-.08q.3-1.77 1.02-3.66zm-.99 3.56.5.08a18 18 0 0 0-.25 3.23l-.5.01-.5.01q-.03-1.66.26-3.4zm-.25 3.32h.5q0 .57.5.98c.35.3.9.56 1.73.75l-.12.49-.11.49a5 5 0 0 1-2.15-.97 2.3 2.3 0 0 1-.85-1.73zm2.61 2.22.12-.49c.9.22 1.62.58 2 1.19.39.64.3 1.39-.07 2.13l-.45-.21-.45-.22c.29-.6.25-.95.11-1.18-.16-.26-.56-.54-1.37-.73zm1.6 2.62.45.21q-.44.94-.35 1.5c.05.37.22.69.59.97l-.31.4-.31.39a2.4 2.4 0 0 1-.96-1.64q-.1-.96.44-2.05zm.38 3.08.3-.4q1.27 1 3.36 1.7l-.15.48-.16.48a12 12 0 0 1-3.66-1.87zm3.5 1.78.16-.47c.79.26 1.4.68 1.67 1.33.28.65.15 1.39-.22 2.13l-.45-.21-.45-.22c.3-.63.32-1.04.2-1.31-.11-.28-.41-.56-1.06-.77zm1.16 2.77.45.22a19 19 0 0 0-1.4 3.8l-.48-.12-.49-.12q.46-1.9 1.47-4zm-1.43 3.9.48.12q-.15.72.19 1.07c.24.27.7.53 1.47.7l-.1.49-.11.49a3.6 3.6 0 0 1-2.02-1.03 2.1 2.1 0 0 1-.4-1.96zm2.04 2.38.1-.5q2.55.56 4 1.68l-.31.4-.31.39a9 9 0 0 0-3.59-1.48zm3.79 1.58.3-.4a6 6 0 0 1 1.99 2.68l-.47.16-.47.17a5 5 0 0 0-1.66-2.22zm1.82 2.44.47-.16q.3.92-.09 2.02-.38 1.08-1.33 2.39l-.4-.3-.41-.29q.9-1.23 1.2-2.13c.2-.59.2-1.03.09-1.36zm-1.36 3.96.4.29q-.88 1.24-1.05 2.02-.14.73.2 1.09l-.38.32-.38.33a2.2 2.2 0 0 1-.41-1.96 7 7 0 0 1 1.22-2.39zm-.83 3.72.38-.32c.56.66 1.6 1.17 3.21 1.46l-.08.5-.09.49c-1.71-.3-3.02-.88-3.8-1.8zm3.5 1.63.1-.49c.87.15 1.6.43 2.1.88q.78.7.73 1.78l-.5-.02-.5-.01q.02-.64-.4-1-.44-.42-1.61-.64zm2.43 2.15.5.02q-.06 1.65.27 3.1l-.49.1-.49.12a13 13 0 0 1-.29-3.35zm.28 3.23.49-.11c.18.8.75 1.45 1.84 1.9l-.2.47-.18.46c-1.3-.55-2.16-1.4-2.44-2.61zm2.14 2.25.2-.46c.72.3 1.2.83 1.29 1.58.08.7-.18 1.49-.67 2.34l-.44-.25-.43-.25c.45-.79.6-1.35.55-1.72-.04-.32-.22-.58-.7-.77zm.38 3.21.44.25c-.46.79-.57 1.33-.51 1.67.05.28.24.53.78.7l-.16.48-.15.48c-.77-.25-1.32-.73-1.46-1.49-.12-.7.14-1.5.63-2.34zm.55 3.1.16-.47q1.97.64 3.86 1.32l-.17.47-.17.47q-1.88-.66-3.83-1.31zm3.85 1.32.17-.48c.72.26 1.26.71 1.48 1.4.2.65.06 1.4-.28 2.21l-.46-.2-.46-.2c.3-.7.34-1.2.24-1.52-.1-.3-.33-.56-.86-.74zM53 572l.47.2a8 8 0 0 0-.8 3.7l-.5.04-.49.04q-.14-1.84.87-4.17zm-.82 3.94.5-.05q.14 1.57.78 2.82l-.44.23-.45.23q-.75-1.44-.89-3.2zm.84 3 .44-.23c.14.27.45.52 1.06.67q.93.24 2.6.08l.05.5.04.5q-1.77.16-2.93-.11c-.77-.2-1.38-.56-1.7-1.18zm4.15 1.02-.05-.5a5 5 0 0 1 2.78.32q.52.27.75.8.21.54.08 1.14l-.5-.1-.48-.1a1 1 0 0 0-.02-.55.6.6 0 0 0-.3-.31c-.38-.2-1.08-.3-2.22-.2zm3.07 1.66.49.1c-.23 1.21-.01 2.06.54 2.65l-.36.34-.36.35c-.85-.9-1.08-2.11-.8-3.53zm.67 3.1.36-.35q1.14 1.2 1.6 2.82l-.49.14-.48.13a5.6 5.6 0 0 0-1.35-2.4zm1.47 2.6.48-.13q.42 1.51.82 3.05l-.48.12-.49.13q-.39-1.53-.81-3.03zm.82 3.04.48-.12q.35 1.38 1.41 2.3l-.33.38-.33.38a5.5 5.5 0 0 1-1.72-2.81zm1.56 2.56.33-.37q1.23 1.07 2.04 2.43l-.43.26-.43.25a9 9 0 0 0-1.84-2.2zm1.94 2.32.43-.26q.83 1.4.95 3.25l-.5.03-.5.03a6 6 0 0 0-.81-2.8zm.89 3.02.5-.03a1 1 0 0 0 .53.87c.37.2.97.33 1.86.3l.02.5.01.5a4.6 4.6 0 0 1-2.38-.43q-.97-.56-1.04-1.68zm2.9 1.63-.01-.5c.96-.03 1.82.17 2.21.9q.27.52.15 1.15-.1.62-.46 1.35l-.45-.22-.45-.22q.31-.65.37-1.06.06-.4-.04-.54c-.1-.17-.4-.39-1.3-.36zm1.44 2.68.45.22c-.44.9-.55 1.5-.48 1.88q.05.25.2.38.17.16.56.25l-.1.49-.11.49a2 2 0 0 1-1.01-.49 1.7 1.7 0 0 1-.52-.93c-.14-.7.1-1.56.56-2.5zm.62 3.22.11-.5q2 .45 3.9.91l-.11.49-.12.49q-1.91-.47-3.88-.9zm3.9.9.11-.49q2.03.48 3.14 1.78l-.39.32-.38.32a4.7 4.7 0 0 0-2.6-1.44zm2.86 1.6.39-.31a5 5 0 0 1 1.04 3.35h-.5l-.5-.01a4 4 0 0 0-.81-2.7zm.93 3.04h.5c-.02 1.13.35 1.88 1.05 2.35l-.28.42-.28.41c-1.04-.7-1.51-1.8-1.5-3.2zm1.27 2.77.28-.42c1.05.72 1.51 1.84 1.47 3.25l-.5-.01-.5-.01c.03-1.17-.33-1.92-1.03-2.4zm1.25 2.82.5.02a2.6 2.6 0 0 0 .28 1.36q.28.5.91.8l-.2.45-.21.46a3 3 0 0 1-1.37-1.22 3.6 3.6 0 0 1-.41-1.88zm1.48 2.63.21-.45q.91.41 1.35 1.27.42.85.31 1.98l-.5-.04-.5-.05q.08-.93-.2-1.45a1.7 1.7 0 0 0-.87-.8zm1.37 2.76.5.04q-.16 1.98.23 3.5l-.49.12-.48.12a12 12 0 0 1-.25-3.83zm.24 3.66.49-.12c.09.36.3.6.72.73a5 5 0 0 0 2.1.01l.08.5.08.49q-1.55.27-2.57-.05a2 2 0 0 1-1.38-1.44zm3.39 1.12-.09-.5c1.02-.17 1.9-.14 2.5.26.68.44.85 1.2.73 2.03l-.5-.07-.49-.07c.1-.64-.07-.91-.28-1.05-.27-.18-.83-.27-1.8-.11zm2.64 1.72.5.07q-.13 1.03.12 1.55.21.52.84.76l-.19.46-.18.47a2.4 2.4 0 0 1-1.39-1.28 4 4 0 0 1-.19-2.1zm1.27 2.84.19-.46q.97.38 1.39 1.28.39.9.22 2.11l-.5-.06-.5-.07q.13-1.04-.13-1.56-.23-.52-.85-.77zm1.3 2.87.5.06c-.1.69 0 1.13.19 1.42.17.26.49.47 1.05.55l-.07.5-.08.5a2.4 2.4 0 0 1-1.74-1 3 3 0 0 1-.35-2.1zm1.67 2.53.07-.5q1.08.15 1.81.75.73.62.93 1.62l-.49.1-.49.1q-.15-.68-.6-1.06t-1.3-.52zm2.32 1.97.5-.1q.06.3.22.45.14.16.45.26.65.21 2.11-.12l.12.49.11.48q-1.57.4-2.61.11-.55-.14-.91-.53-.36-.4-.48-.93zm3.4.98-.12-.49a9 9 0 0 1 2.69-.28c.75.07 1.39.31 1.84.78l-.36.35-.36.35q-.33-.39-1.21-.48-.9-.1-2.37.25zm4.05.36.36-.35a15 15 0 0 1 1.9 2.45l-.43.26-.42.27q-.78-1.25-1.77-2.28zm1.83 2.37.42-.27a29 29 0 0 1 1.51 2.75l-.45.21-.45.22q-.67-1.38-1.45-2.65zm1.48 2.7.45-.22a5 5 0 0 0 1.8 2.02l-.27.43-.27.42a6 6 0 0 1-2.16-2.44zm1.98 2.23.27-.43a61 61 0 0 0 2.62 1.58l-.24.43-.25.44q-1.36-.78-2.67-1.6zm2.65 1.58.24-.43c.6.33.96.9 1.1 1.6a6 6 0 0 1-.18 2.48l-.48-.11-.49-.12q.32-1.34.16-2.06-.14-.69-.6-.92zm.68 3.54.48.11c-.22.9-.1 1.33.05 1.51.13.16.48.31 1.32.15l.1.49.09.49c-.91.18-1.76.12-2.27-.48-.5-.57-.49-1.44-.26-2.4zm1.94 2.26-.1-.5a4 4 0 0 1 2.35.1q1 .45 1.2 1.58l-.48.09-.5.1c-.08-.46-.3-.71-.61-.85-.36-.15-.93-.2-1.76-.03zm2.97 1.27.49-.1c.2 1.04.72 1.66 1.56 1.97l-.17.47-.17.47a3.4 3.4 0 0 1-2.2-2.72zm1.88 2.34.17-.47q.94.34 1.41 1.2.44.86.42 2.06l-.5-.01-.5-.01q0-1.03-.3-1.56-.27-.53-.87-.74zm1.5 2.78h.5c-.03 1.4.35 2.25.98 2.71l-.3.4-.3.4c-1-.73-1.4-1.96-1.38-3.52zm1.18 3.11.3-.4q1.23.9 2.38 1.93l-.34.37-.33.37a32 32 0 0 0-2.3-1.87zm2.34 1.9.34-.37q.97.88 2.69 1.06l-.05.5-.05.5a5.6 5.6 0 0 1-3.26-1.32zm2.98 1.18.05-.5c.74.08 1.34.4 1.71 1.01q.5.89.37 2.23l-.5-.05-.5-.04c.07-.79-.03-1.3-.22-1.62-.18-.29-.47-.48-.96-.53zm1.64 2.7.5.04c-.14 1.61.18 2.55.76 3.04l-.32.38-.32.39c-.97-.8-1.27-2.18-1.12-3.9zm.94 3.46.32-.38c.58.5 1.6.66 3.22.26l.12.49.12.49c-1.72.41-3.14.33-4.1-.47zm3.66.37-.12-.49c.89-.21 1.7-.2 2.28.29.57.48.72 1.28.65 2.18l-.5-.04-.5-.04c.07-.8-.1-1.17-.3-1.34-.2-.16-.6-.27-1.39-.08zm2.31 1.94.5.04c-.06.8.07 1.28.27 1.55.18.24.48.4 1.05.38l.02.5.02.5c-.78.03-1.46-.2-1.9-.78-.4-.55-.52-1.33-.45-2.23zm1.84 2.47-.02-.5q2.06-.09 3.96-.03l-.02.5-.01.5a55 55 0 0 0-3.89.03zm3.92-.03.02-.5q1.06.02 1.83.5.77.51 1.16 1.41l-.46.2-.46.2a2 2 0 0 0-.77-.96 2.6 2.6 0 0 0-1.33-.35zm2.55 1.6.46-.19a10 10 0 0 1 .58 4.35l-.5-.02-.5-.03a9 9 0 0 0-.5-3.9zm.54 4.13.5.03q-.05 1.22.24 1.84.26.59.8.77l-.17.48-.17.47a2.4 2.4 0 0 1-1.38-1.32 5 5 0 0 1-.32-2.29zm1.37 3.12.17-.48c.82.3 2.08.18 3.87-.53l.18.47.19.46c-1.85.73-3.4.97-4.58.55zm4.22-.54-.18-.47c.93-.37 1.8-.5 2.45-.15.7.38.93 1.17.92 2.07h-.5l-.5-.01c.01-.79-.2-1.07-.39-1.18-.24-.13-.73-.15-1.61.2zm2.7 1.45h.49c-.01.8.17 1.17.38 1.33.2.15.58.24 1.33.02l.14.48.13.48c-.84.25-1.64.26-2.22-.2-.58-.45-.77-1.23-.76-2.12zm2.34 1.83-.14-.48c.85-.24 1.66-.24 2.22.3.54.5.68 1.34.62 2.3l-.5-.03-.5-.03c.06-.9-.1-1.33-.3-1.52-.18-.16-.53-.27-1.27-.06zm2.2 2.09.5.03c-.06.89.05 1.49.24 1.85.18.33.44.51.87.55l-.05.5-.04.5a2 2 0 0 1-1.66-1.07 4.5 4.5 0 0 1-.36-2.4zm1.56 2.93.05-.5q1.8.16 3.3.8l-.2.47-.2.46a10 10 0 0 0-3-.73zm3.15.77.2-.46a8 8 0 0 1 2.63 1.8l-.36.36-.35.35a7 7 0 0 0-2.32-1.6zm2.47 1.7.36-.36q1.03 1.05 2.26 1.81l-.27.42-.26.43q-1.32-.83-2.44-1.95zm2.35 1.88.27-.43c1.01.63 1.62 1.76 1.88 3.25l-.49.1-.49.08c-.24-1.34-.75-2.15-1.43-2.58zm1.66 2.91.5-.09c.1.64.33 1 .6 1.2q.36.3 1.23.19l.09.49.08.5c-.76.12-1.45.03-2-.38a2.8 2.8 0 0 1-.99-1.82zm2.42 1.79-.09-.5a6 6 0 0 1 3.7.39l-.23.45-.22.44a5 5 0 0 0-3.08-.29zm3.38.34.22-.45q1.35.68 2.69 1.4l-.24.44-.24.44a78 78 0 0 0-2.66-1.39zm2.67 1.39.24-.44a7 7 0 0 1 2.4 2.26l-.41.27-.42.28a6 6 0 0 0-2.05-1.93zm2.23 2.1.41-.28a24 24 0 0 0 1.9 2.5l-.37.34-.37.32q-1.06-1.2-1.99-2.61zm1.94 2.56.38-.33q.84 1 2.45.92l.03.5.03.5a3.8 3.8 0 0 1-3.26-1.26zm2.86 1.09-.03-.5a3.24 3.24 0 0 1 3.16 1.6l-.43.25-.43.26q-.37-.61-.9-.88-.54-.27-1.34-.23zm2.7 1.35.43-.26q.85 1.4 1.9 2.5l-.36.34-.36.35a15 15 0 0 1-2.03-2.67zm1.97 2.58.36-.35q1.05 1.11 2.23 2.04l-.31.39-.31.4q-1.23-.98-2.33-2.13zm2.28 2.08.3-.4q.38.33 1.17.2a7 7 0 0 0 2.13-.94l.26.43.26.42q-1.37.86-2.47 1.08c-.74.13-1.42.03-1.96-.4zm3.86-.71-.26-.43q.7-.44 1.31-.59.63-.17 1.19.13c.36.2.58.56.71.96q.19.6.17 1.44h-.5l-.5-.01q0-.75-.12-1.12-.13-.36-.26-.4c-.08-.05-.21-.08-.47-.02q-.38.07-1 .46zm2.62 1.5.5.01c-.01 1.04.16 1.6.38 1.84.15.18.43.3 1.05.06l.17.47.18.47c-.81.3-1.6.28-2.15-.34-.48-.54-.64-1.44-.63-2.51zm2.1 2.38-.17-.47q2.2-.82 4-.74l-.03.5-.02.5a9 9 0 0 0-3.6.68zm3.8-.7.03-.5q1.66.08 3.26.28l-.06.5-.07.5q-1.55-.2-3.18-.29zm3.23.28.06-.5c1.31.17 2.17 1.13 2.62 2.6l-.48.14-.48.15c-.38-1.25-1-1.8-1.79-1.9zm2.2 2.24.48-.14a9 9 0 0 0 1.58 3.1l-.38.33-.38.32a10 10 0 0 1-1.78-3.46zm1.68 3.29.38-.33q.43.49 1.01.62.6.13 1.5-.13l.14.48.14.48a4 4 0 0 1-1.99.14 2.8 2.8 0 0 1-1.56-.94zm3.03.64-.14-.48c1.4-.42 2.64-.35 3.64.34l-.29.41-.28.41c-.66-.45-1.56-.56-2.79-.2zm3.21.27.29-.41q1.19.81 2.55 1.23l-.14.47-.15.48q-1.52-.45-2.83-1.36zm2.7 1.3.14-.48q1.36.4 2.96.35l.01.5.02.5q-1.74.06-3.28-.4zm3.11.37-.01-.5a3.8 3.8 0 0 1 3.13 1.35l-.37.33-.38.33a2.8 2.8 0 0 0-2.35-1.01zm2.75 1.18.38-.33a2.8 2.8 0 0 0 2.33 1.04v.5l.01.5a3.8 3.8 0 0 1-3.1-1.38zm2.72 1.21-.01-.5q1-.02 1.75.61a4 4 0 0 1 1.1 1.76l-.47.16-.47.17a3 3 0 0 0-.81-1.33q-.44-.38-1.09-.37zm2.37 2.03.47-.16q.35.94.81 1.34.44.4 1.08.4v1q-1 0-1.74-.65a4 4 0 0 1-1.1-1.76zm2.35 2.08v-.5q1.06.01 1.75.8.65.78.94 2.1l-.48.12-.49.1a4 4 0 0 0-.73-1.66q-.4-.46-.99-.46zm2.2 2.52.5-.11c.18.79.45 1.14.7 1.27.22.12.6.13 1.23-.2l.23.44.24.44c-.75.4-1.52.55-2.17.2-.64-.33-1-1.05-1.21-1.93zm2.66 1.4-.23-.45c1.45-.77 2.79-.95 3.86-.24l-.27.42-.28.41c-.62-.4-1.52-.4-2.84.3zm3.36-.27.27-.42q1.35.9 2.48 2.29l-.39.31-.39.32q-1.04-1.3-2.25-2.09zm2.36 2.18.4-.31q1.05 1.3 2.23 2.34l-.33.37-.33.38a20 20 0 0 1-2.36-2.46zm2.3 2.4.33-.37a5.5 5.5 0 0 0 2.48 1.27l-.1.49-.1.49a6.5 6.5 0 0 1-2.94-1.5zm2.7 1.39.11-.5q1.3.31 3.09-.44l.2.47.19.46a6 6 0 0 1-3.69.5zm3.4-.47-.2-.47a4 4 0 0 1 1.96-.34q.94.12 1.65.8l-.35.36-.35.36a1.8 1.8 0 0 0-1.06-.53q-.6-.08-1.47.28zm3.06.35.35-.36a8 8 0 0 0 2.42 1.63l-.2.46-.19.46a9 9 0 0 1-2.73-1.83zm2.57 1.73.2-.46q1.5.63 2.72 1.98l-.37.34-.37.34a7 7 0 0 0-2.37-1.74zm2.55 1.86.37-.34a3.1 3.1 0 0 0 2.38 1.13v1q-1.83-.01-3.12-1.45zm2.75 1.29v-.5c.88 0 2-.5 3.41-1.66l.32.38.32.39c-1.46 1.21-2.82 1.9-4.06 1.89zm3.73-1.78-.32-.38a4.3 4.3 0 0 1 2.16-1.1c.74-.07 1.36.24 1.82.83l-.4.3-.4.32c-.27-.37-.57-.48-.92-.45-.4.05-.93.3-1.62.87zm3.26-.34.4-.3q.5.62 1.04.82.53.21 1.24.07l.1.49.11.48q-.96.21-1.81-.1a3.5 3.5 0 0 1-1.47-1.15zm2.79 1.08-.11-.5q1.01-.21 1.87.32.8.56 1.3 1.68l-.45.2-.45.21a3 3 0 0 0-.95-1.25q-.46-.3-1.1-.18zm2.61 1.7.46-.2q.44.93.92 1.16.44.26 1.14.02l.17.46.17.48q-1.04.38-1.95-.08a3.3 3.3 0 0 1-1.36-1.63zm2.69 1.44-.17-.46q1.8-.66 3.45-.78l.04.5.04.5q-1.5.1-3.2.72zm3.32-.74-.04-.5q1.61-.1 3.17-.03l-.02.5-.03.5q-1.49-.07-3.04.03zm3.1-.03.03-.5c.73.03 1.3.48 1.71 1.14q.61 1 .94 2.76l-.49.1-.49.09a7 7 0 0 0-.8-2.42c-.32-.5-.63-.66-.92-.67zm2.2 3.5.49-.1q.16.82.37 1.29.22.47.4.58.16.1.35.08.24-.03.67-.36l.31.39.31.4a2.6 2.6 0 0 1-1.1.55q-.61.1-1.12-.25a2.4 2.4 0 0 1-.73-.98 7 7 0 0 1-.45-1.51zm2.6 1.88-.32-.4c.69-.54 1.4-.85 2.1-.73.73.12 1.26.66 1.64 1.4l-.44.24-.45.23c-.32-.62-.63-.84-.9-.89-.3-.05-.73.06-1.33.54zm2.98.5.44-.22c.32.62.64.88.93.97.29.07.68.01 1.23-.36l.28.42.28.41c-.68.46-1.37.68-2.05.49s-1.18-.74-1.56-1.48zm2.88.8-.28-.4a6.5 6.5 0 0 1 3.66-1.3l-.01.5-.01.5q-1.31-.05-3.08 1.12zm3.37-1.2v-.5q1.6.03 3.1.47l-.13.48-.14.48q-1.38-.4-2.84-.43zm2.97.45.14-.48a5.4 5.4 0 0 1 2.89 2.38l-.42.28-.42.27c-.74-1.11-1.52-1.74-2.33-1.97zm2.61 2.18.42-.28q.53.8 1.07 1 .5.24 1.16.02l.16.47.16.48q-.98.32-1.88-.05a3.6 3.6 0 0 1-1.5-1.37zm2.81 1.21-.16-.47a12 12 0 0 0 3.28-1.75l.3.4.28.41q-1.8 1.3-3.54 1.89zm3.41-1.81-.29-.41c.66-.48 1.37-.69 2.06-.44.66.25 1.16.87 1.54 1.68l-.45.22-.45.2c-.35-.72-.7-1.05-.98-1.16-.26-.1-.62-.06-1.14.31zm2.86 1.05.45-.22c.35.74.7 1.14 1.03 1.33.3.16.63.19 1.06-.02l.21.46.2.45q-1.01.49-1.96-.02a4 4 0 0 1-1.44-1.77zm2.75 1.55-.2-.46q1.62-.75 3.3-1.73l.25.44.25.43a39 39 0 0 1-3.4 1.77zm3.35-1.75-.26-.44c.67-.38 1.36-.48 2.02-.16.62.3 1.1.92 1.5 1.75l-.44.21-.45.22c-.36-.74-.72-1.13-1.05-1.29-.28-.13-.62-.13-1.07.14zm2.82 1.36.45-.22c.74 1.53 1.48 1.98 2.18 1.9l.06.5.05.5c-1.37.15-2.41-.85-3.2-2.46zm2.69 2.18-.06-.5q1.62-.19 3.17.1l-.1.49-.08.49a10 10 0 0 0-2.88-.09zm3.02.09.09-.5q1.41.26 2.88.2l.02.5.02.5q-1.57.06-3.1-.21zm3 .2-.03-.5a5.6 5.6 0 0 1 3.2.86l-.25.43-.26.43a4.7 4.7 0 0 0-2.65-.72zm2.92.79.25-.43q1.32.8 2.7.93l-.05.5-.05.5a7.4 7.4 0 0 1-3.11-1.07zm2.9 1 .05-.5a8 8 0 0 1 3.13 1.07l-.26.43-.26.43q-1.34-.8-2.71-.93zm2.92 1 .26-.43q1.26.75 2.62.48l.1.5.1.48a4.6 4.6 0 0 1-3.34-.6zm2.98.54-.1-.49a47 47 0 0 0 3.07-.72l.13.48.13.49q-1.56.42-3.13.73zm3.1-.73-.13-.48q1.6-.43 3.18-.45v1q-1.43.01-2.92.42zm3.05-.43v-.5q1.61 0 3.16.65l-.2.46-.2.46a7 7 0 0 0-2.75-.57zm2.96.61.2-.46q1.5.64 2.97 1.62l-.27.42-.28.42a18 18 0 0 0-2.82-1.54zm2.9 1.58.27-.42q.26.17.47.16.2 0 .5-.15c.42-.24.91-.77 1.46-1.68l.43.26.43.26a6 6 0 0 1-1.8 2.02q-.5.3-1.04.3-.55-.02-1-.33zm3.13-1.83-.43-.26a8 8 0 0 1 1.76-2.14c.6-.47 1.27-.68 1.95-.52l-.11.49-.12.48c-.3-.07-.66 0-1.11.34a7 7 0 0 0-1.51 1.87zm3.17-2.43.11-.49a8 8 0 0 1 3.12 1.65l-.32.38-.32.39a7 7 0 0 0-2.71-1.45zm2.9 1.54.33-.38q1.45 1.2 2.9 2.62l-.35.35-.34.36q-1.43-1.38-2.85-2.56zm2.88 2.6.35-.37c.39.38.69.42.96.33.35-.12.79-.5 1.3-1.29l.42.27.42.27c-.55.85-1.14 1.46-1.8 1.7-.74.25-1.42 0-2-.56zm3.03-1.06-.42-.27a5 5 0 0 1 1.74-1.8 2 2 0 0 1 1.98.04l-.25.43-.25.43a1 1 0 0 0-1.01-.01q-.6.28-1.37 1.45zm3.05-1.6.25-.43q1.5.85 2.99 1.9l-.29.4-.28.42q-1.47-1.02-2.92-1.86zm2.95 1.88.29-.41a4.4 4.4 0 0 0 2.69.88l.01.5.02.5a5.4 5.4 0 0 1-3.3-1.06zm3 .97-.02-.5q1.65-.07 3.25.74l-.22.45-.22.44a6 6 0 0 0-2.78-.63zm3.01.69.22-.45q.48.26 1.01-.1.61-.39 1.34-1.71l.44.23.44.24a6 6 0 0 1-1.66 2.07q-.98.66-2 .16zm3.01-2.03-.44-.23a5 5 0 0 1 1.69-2.02q.49-.28 1.03-.26t1 .37l-.27.4-.29.42a1 1 0 0 0-.5-.2q-.2-.01-.47.14a4 4 0 0 0-1.31 1.62zm3-1.73.29-.41q1.37.92 2.62.67l.1.49.09.5a4.4 4.4 0 0 1-3.38-.84zm3 .75-.09-.5q1.47-.26 2.94-.68l.13.48.13.48q-1.5.43-3.01.71zm2.98-.7-.13-.48a5.6 5.6 0 0 1 3.27.07l-.15.47-.15.48a4.6 4.6 0 0 0-2.7-.06zm2.99.06.15-.47a7.6 7.6 0 0 1 3.32 2.5l-.39.32-.38.33a6.6 6.6 0 0 0-2.85-2.2zm3.08 2.35.39-.32c.5.59.93.9 1.31 1.02q.52.17 1.07-.18l.27.43.27.42q-.91.58-1.9.28a4 4 0 0 1-1.79-1.32zm3.04.95-.27-.43q1.5-.96 3.06-1.46l.16.48.15.47q-1.42.46-2.83 1.36zm2.95-1.41-.16-.48q1.32-.41 2.66-1.9l.38.34.37.33a7 7 0 0 1-3.1 2.18zm2.88-2.04-.38-.34c.54-.6 1.18-.93 1.92-.82.69.1 1.32.6 1.9 1.32l-.4.32-.38.3c-.52-.64-.95-.9-1.28-.95-.28-.05-.61.05-1.01.5zm3.05.48.39-.32c.52.65.94.9 1.25.93.27.04.6-.07 1-.56l.38.32.38.32c-.51.63-1.14 1-1.88.91-.7-.08-1.33-.58-1.91-1.3zm3.02.37-.39-.32q.75-.91 1.64-1.24a2.6 2.6 0 0 1 1.86.06l-.19.47-.19.46q-.61-.25-1.15-.05-.56.18-1.2.94zm2.92-1.03.19-.47q1.3.54 2.49-.28l.28.41.28.41a3.5 3.5 0 0 1-3.43.39zm2.96-.34-.28-.41q1.44-1 2.95-1.58l.18.47.18.46q-1.38.54-2.75 1.47zm2.85-1.52-.18-.47q1.58-.6 3.26-.3l-.1.5-.09.49a5 5 0 0 0-2.71.24zm2.98-.27.1-.5q1.3.26 2.53-.63l.3.4.29.41a4.2 4.2 0 0 1-3.3.8zm2.92-.72-.29-.4q.92-.66 1.97-.25c.64.26 1.28.82 1.9 1.6l-.4.31-.38.31a4 4 0 0 0-1.5-1.3 1 1 0 0 0-1 .13zm3.19 1.26.39-.3a4 4 0 0 0 1.5 1.32c.4.17.71.14 1.03-.06l.27.42.27.42c-.61.4-1.29.43-1.96.14a5 5 0 0 1-1.9-1.63zm3.19 1.38-.27-.42q1.5-.98 3.21-.9l-.02.5-.03.5q-1.35-.07-2.62.74zm2.92-.82.02-.5q1.44.07 2.8-.37l.15.47.16.48a9 9 0 0 1-3.16.42zm2.97-.4-.15-.47c1.15-.38 2.36-.1 3.58.71l-.27.42-.28.41c-1.06-.7-1.95-.84-2.72-.6zm3.16.66.27-.42q.36.21.55.2a.6.6 0 0 0 .4-.14c.32-.25.67-.83 1-1.89l.47.14.48.15c-.33 1.1-.76 1.94-1.34 2.39q-.46.37-1.03.36-.57-.03-1.08-.37zm2.69-2.1-.48-.15a10 10 0 0 1 1.16-2.65 3 3 0 0 1 1.62-1.29l.13.48.12.49c-.32.08-.67.34-1.04.88a9 9 0 0 0-1.03 2.38zm2.43-3.6-.13-.49a9 9 0 0 1 3.17-.2l-.05.5-.06.49a8 8 0 0 0-2.81.18zm2.99-.2.05-.5c1.18.14 2.4.82 3.67 1.94l-.34.38-.33.37c-1.19-1.06-2.22-1.59-3.11-1.7zm3.38 1.82.33-.38c1.19 1.05 2.1 1.3 2.8 1.07l.15.48.15.47c-1.21.4-2.49-.14-3.76-1.27zm3.28 1.17-.15-.48q1.46-.45 2.94-.82l.12.48.12.49q-1.46.35-2.88.8zm2.9-.82-.1-.49a5.6 5.6 0 0 1 3.46.36l-.19.47-.18.46a4.6 4.6 0 0 0-2.86-.31zm3.17.34.2-.47c.46.2.82.18 1.14.03q.5-.21 1.02-1.11l.44.24.43.24q-.58 1.1-1.47 1.54c-.61.29-1.27.26-1.94-.01zm2.8-1.31-.44-.24a15 15 0 0 1 2.41-3.38l.36.35.36.35q-1.19 1.2-2.26 3.16zm2.33-3.27-.36-.35q.7-.73 1.64-.9a3.3 3.3 0 0 1 1.9.33l-.21.45-.21.46a2.3 2.3 0 0 0-1.32-.25q-.56.08-1.08.61zm2.97-.47.2-.45q1.73.79 3.45 1.5l-.2.46-.18.47q-1.74-.74-3.48-1.52zm3.46 1.51.19-.46c1.03.43 1.88.37 2.61-.09l.27.43.27.42q-1.6.98-3.53.17zm3.07-.12-.27-.43q1.4-.87 2.9-1.35l.15.47.15.48q-1.37.44-2.66 1.25zm2.78-1.3-.15-.48a6 6 0 0 0 2.45-1.57l.36.35.35.35a7 7 0 0 1-2.86 1.82zm2.66-1.7-.36-.35c.9-.9 1.94-1.4 3.11-1.42l.02.5v.5q-1.31.02-2.42 1.12zm2.77-1.27-.02-.5q1.53-.04 3-.25l.07.5.07.5q-1.54.2-3.11.25zm3.05-.25-.07-.5a5.6 5.6 0 0 0 2.56-1.04l.3.4.3.4a6.6 6.6 0 0 1-3.02 1.23zm2.79-1.14-.3-.4a8 8 0 0 0 2.14-2.6l.44.24.44.24a9 9 0 0 1-2.43 2.92zm2.28-2.76-.44-.24q.29-.55.76-.85.49-.29 1.06-.22c.72.1 1.48.6 2.26 1.36l-.35.36-.35.36c-.75-.73-1.3-1.04-1.68-1.08a.6.6 0 0 0-.42.08 1 1 0 0 0-.4.47zm3.29.41.35-.36a4 4 0 0 0 1.75 1.18q.3.06.48-.02a1 1 0 0 0 .41-.34l.4.3.4.3q-.34.46-.84.67-.51.2-1.07.07a5 5 0 0 1-2.23-1.44zm3.4.76-.4-.3q1.08-1.46 2.1-3.07l.43.27.42.26q-1.04 1.64-2.16 3.14zm2.13-3.1-.43-.27c.75-1.17 1.71-1.9 2.9-2.06l.07.5.06.49c-.82.11-1.55.6-2.18 1.6zm2.54-1.84-.07-.5a4 4 0 0 0 2.35-1.28l.37.35.37.34a5 5 0 0 1-2.96 1.59zm2.65-1.44-.37-.34q.37-.4.9-.54.53-.11 1.08.06c.7.2 1.48.74 2.3 1.53l-.34.36-.34.36a5 5 0 0 0-1.9-1.3 1 1 0 0 0-.56-.03 1 1 0 0 0-.4.25zm3.57 1.07.35-.36a4.4 4.4 0 0 0 1.84 1.2q.3.06.47-.02a1 1 0 0 0 .39-.36l.41.27.42.28a2 2 0 0 1-.82.72q-.51.21-1.08.1a5.3 5.3 0 0 1-2.32-1.47zm3.47.73-.42-.27q.57-.88 1.4-1.28a3 3 0 0 1 1.85-.23l-.08.5-.08.5a2 2 0 0 0-1.26.13q-.55.25-1 .93zm2.75-1.28.08-.5q.7.11 1.18-.18.5-.28.91-1.09l.45.22.45.22a3.5 3.5 0 0 1-1.3 1.51 2.7 2.7 0 0 1-1.85.31zm2.62-1.55-.45-.22a5 5 0 0 1 2.58-2.6l.18.47.17.46c-.78.3-1.46.97-2.03 2.11zm2.3-2.36-.17-.46q1.2-.43 2.06-2l.44.24.44.24a5 5 0 0 1-2.59 2.45zm2.33-2.22-.44-.24q.5-.95 1.3-1.42a3 3 0 0 1 1.8-.36l-.05.5-.05.5a2 2 0 0 0-1.2.22q-.5.29-.92 1.03zm2.61-1.52.05-.5q1.8.2 3.94 1.25l-.22.45-.22.44a11 11 0 0 0-3.6-1.14zm3.77 1.2.22-.45q.95.46 1.58.4.6-.02 1.01-.5l.37.34.37.34q-.68.75-1.69.82a4 4 0 0 1-2.08-.5zm3.18-.21-.37-.34q1.1-1.2 2.05-2.64l.42.28.42.28q-1 1.5-2.15 2.76zm2.1-2.7-.41-.28q.57-.88 1.54-1.12a3.5 3.5 0 0 1 2.06.25l-.19.47-.18.46a2.5 2.5 0 0 0-1.47-.2q-.52.11-.93.7zm3-.68.19-.47q.43.16.64.12a.6.6 0 0 0 .36-.19c.23-.26.44-.85.49-1.9l.5.03.5.02c-.06 1.1-.27 1.98-.75 2.52q-.4.43-.97.51a2.3 2.3 0 0 1-1.14-.18zm2.18-2.41-.5-.03q.06-1.67.59-2.63a1.9 1.9 0 0 1 1.7-1.06v.5l.01.5c-.34 0-.61.15-.84.55a5 5 0 0 0-.46 2.2zm1.8-3.23v-.5q1.6-.01 3.1-.26l.08.49.08.5a20 20 0 0 1-3.26.27zm3.18-.27-.09-.5c.84-.14 1.51-.66 2.02-1.65l.45.23.44.22q-.93 1.85-2.74 2.2zm2.38-1.93-.45-.22q.47-.92 1.22-1.44a3 3 0 0 1 1.74-.5v1q-.7 0-1.19.34-.5.32-.88 1.05zm2.51-1.65v-.5q1.5-.01 2.55-.85l.31.39.31.39a5 5 0 0 1-3.17 1.07zm2.86-.96-.31-.39a8 8 0 0 1 2.86-1.43l.12.48.13.48a7 7 0 0 0-2.49 1.25zm2.67-1.34-.12-.48c1.17-.31 2.6.05 4.2.9l-.23.44-.23.44c-1.54-.81-2.69-1.03-3.5-.82zm3.85.86.24-.44c.75.4 1.3.52 1.7.48q.52-.04.84-.62l.44.23.44.23c-.35.66-.89 1.08-1.61 1.15a4 4 0 0 1-2.28-.59zm3.22-.35-.44-.23a85 85 0 0 1 1.73-3.13l.43.25.44.25q-.88 1.5-1.72 3.1zm1.72-3.11-.43-.25q.9-1.53 1.87-2.9l.4.3.41.3q-.94 1.3-1.81 2.8zm1.85-2.85-.41-.3q.62-.84 1.7-.92 1-.05 2.27.57l-.22.45-.21.45a4 4 0 0 0-1.79-.47q-.59.05-.94.51zm3.34-.2.22-.45c1.55.73 2.71.92 3.54.69l.14.48.13.49c-1.18.32-2.61.01-4.24-.76zm3.9.72-.13-.48c.8-.22 1.41-.82 1.8-1.96l.47.16.48.17c-.47 1.35-1.28 2.27-2.5 2.6zm2.14-2.28-.47-.16q.35-1.05 1.13-1.61.8-.54 1.87-.45l-.04.5-.04.5q-.78-.05-1.22.27-.46.3-.75 1.12zm2.5-1.72.03-.5q.74.04 1.08-.33.39-.36.57-1.42l.5.07.49.07a3.4 3.4 0 0 1-.86 1.99c-.48.49-1.13.67-1.86.62zm2.17-2.18-.5-.07c.24-1.6.77-2.84 1.68-3.6l.32.4.32.38c-.64.52-1.1 1.47-1.32 2.96zm1.5-3.28-.32-.39q1.2-.98 2.52-1.76l.25.43.26.43q-1.25.75-2.4 1.68zm2.45-1.72-.25-.43a6 6 0 0 0 1.97-2l.43.26.43.26a7 7 0 0 1-2.32 2.34zm2.15-2.17-.43-.26q.52-.86 1.44-1.16t2.05-.03l-.1.49-.11.48a3 3 0 0 0-1.53 0q-.55.18-.9.74zm2.95-.96.1-.5c1.32.29 2.28.15 2.96-.3l.28.4.28.42c-.99.66-2.25.78-3.72.46zm3.34-.4-.28-.4c.64-.44 1.1-1.32 1.2-2.85l.5.04.5.04c-.12 1.65-.62 2.91-1.64 3.6zm1.43-3.21-.5-.04c.06-.87.38-1.61 1.15-1.89.69-.25 1.56-.03 2.5.42l-.23.45-.21.45c-.9-.43-1.44-.48-1.72-.38-.22.08-.44.31-.5 1.03zm2.92-1.06.22-.45c.89.43 1.57.6 2.05.6.45-.01.73-.18.92-.48l.42.26.43.27q-.6.92-1.75.95a6 6 0 0 1-2.5-.7zm3.61-.06-.42-.27q.76-1.22.87-3.58l.5.01.5.02a8 8 0 0 1-1.02 4.08zm.95-3.84-.5-.01q.01-.7.29-1.2.3-.54.88-.7.57-.16 1.22.02.64.16 1.43.57l-.24.45-.23.44q-.72-.37-1.2-.49a1.4 1.4 0 0 0-.7-.03.5.5 0 0 0-.3.23q-.12.2-.15.74zm3.08-.87.24-.45q.7.37 1.2.49.48.1.67.02.16-.04.27-.24.13-.22.13-.77h1q0 .7-.24 1.23-.27.55-.86.74-.56.16-1.2-.01-.65-.16-1.44-.57zm3.01-.95h-.5c0-.89.21-1.66.77-2.12s1.35-.5 2.19-.29l-.12.49-.12.48c-.72-.18-1.1-.08-1.31.1-.22.17-.4.56-.4 1.34zm2.34-1.92.12-.49q1.07.25 1.58.02c.32-.13.56-.38.71-.85l.48.16.47.15q-.33 1.07-1.3 1.47c-.61.25-1.36.23-2.18.02zm2.89-1.16-.48-.16a23 23 0 0 1 1.35-3.28l.44.23.45.22q-.74 1.44-1.29 3.14zm1.31-3.21-.44-.23q.46-.91 1.4-1.25a4 4 0 0 1 2.14-.07l-.1.49-.09.5q-1.04-.2-1.62.03-.55.19-.84.75zm3-1.06.1-.5c1.4.27 2.21-.03 2.65-.65l.4.28.42.29c-.76 1.09-2.06 1.37-3.66 1.07zm3.16-.87-.41-.28q.87-1.26 1.53-2.75l.46.2.45.2q-.69 1.59-1.62 2.92zm1.58-2.83-.46-.2a15 15 0 0 1 1.66-2.87l.4.3.4.3q-.89 1.18-1.55 2.67zm1.6-2.78-.4-.3q.83-1.1 1.1-2.98l.5.07.5.07a7.5 7.5 0 0 1-1.3 3.44zm1.2-3.21-.5-.07q.15-1.13.91-1.78a2.8 2.8 0 0 1 1.95-.53l-.02.5-.02.5c-.61-.03-1.01.1-1.28.31-.26.21-.46.56-.54 1.14zm2.34-1.88.02-.5q2 .1 3.58-.28l.1.49.12.49q-1.74.4-3.85.3zm3.7-.29-.1-.49q.59-.13.8-.66.27-.57.1-1.83l.5-.07.5-.07c.12.93.09 1.73-.18 2.36q-.43 1-1.5 1.25zm1.3-3.05-.5.07a5 5 0 0 1 .14-2.37q.36-1.02 1.37-1.36l.16.47.16.48q-.53.16-.75.75-.25.62-.09 1.89zm1.17-3.19-.16-.47a15 15 0 0 1 3.55-.7l.04.5.04.5q-1.84.15-3.31.64zm3.43-.67-.04-.5q1.88-.15 3.68-.4l.07.49.07.5q-1.83.25-3.74.41zm3.7-.41-.06-.5a5 5 0 0 0 2.66-1.15l.34.37.34.37a6 6 0 0 1-3.2 1.4zm2.94-1.28-.34-.37q1.17-1.05 2.56-1.85l.25.43.25.44q-1.31.75-2.38 1.72zm2.47-1.79-.25-.43a3.2 3.2 0 0 0 1.53-2.2l.5.13.48.11a4.2 4.2 0 0 1-2.01 2.83zm1.77-2.5-.49-.12a3.7 3.7 0 0 1 2.23-2.7l.2.47.18.46q-1.27.5-1.63 2zm1.93-2.35-.19-.47q.59-.23.83-.78.28-.55.21-1.62l.5-.03.5-.04q.1 1.23-.3 2.11-.42.9-1.36 1.29zm1.35-2.9-.5.03c-.12-1.62.32-2.87 1.54-3.47l.22.45.22.45c-.69.34-1.09 1.07-.98 2.5zm1.26-2.99-.22-.45a9.5 9.5 0 0 1 3.68-.86l.03.5.03.5a8.5 8.5 0 0 0-3.3.76zm3.49-.8-.03-.5q.93-.06 1.45-.4.5-.31.72-.94l.48.17.47.17q-.33.93-1.14 1.45-.8.49-1.92.54zm2.62-1.67-.48-.17q.53-1.47.63-3.37l.5.02.5.02a13 13 0 0 1-.68 3.67zm.64-3.52-.5-.02c.07-1.42.58-2.54 1.6-3.22l.28.41.28.42c-.69.46-1.1 1.23-1.16 2.43zm1.38-2.83-.28-.41a8 8 0 0 1 3.48-1.18l.06.5.06.5q-1.9.22-3.04 1zm3.26-1.1-.06-.5a4.5 4.5 0 0 0 2.75-1.15l.36.35.35.35a5.5 5.5 0 0 1-3.34 1.45zm3.05-1.3-.36-.35c.56-.57.84-1.48.67-2.9l.5-.05.5-.06c.18 1.57-.1 2.85-.96 3.71zm.81-3.3-.5.06c-.09-.8.01-1.53.4-2.08.4-.56 1.04-.85 1.8-.95l.06.5.06.5c-.58.07-.91.27-1.1.53-.2.27-.3.7-.22 1.38zm1.76-2.47-.06-.5c1.23-.15 1.92-.64 2.25-1.39l.46.2.45.2c-.5 1.17-1.58 1.8-3.04 1.99zm2.65-1.69-.46-.2q.66-1.48 1.57-2.75l.4.3.41.29q-.86 1.17-1.47 2.56zm1.52-2.66-.4-.29q.84-1.17 1.44-2.56l.46.2.46.2q-.64 1.47-1.56 2.75zm1.5-2.65-.46-.2a3.9 3.9 0 0 1 2.78-2.19l.12.49.12.48c-1.1.28-1.76.83-2.1 1.61zm2.44-1.9-.12-.49q.74-.2 1-.65.28-.44.19-1.4l.5-.05.49-.06q.16 1.17-.33 2.03-.54.84-1.6 1.1zm1.56-2.6-.5.07a3.5 3.5 0 0 1 .28-2.04q.46-.87 1.45-1.23l.17.47.17.47q-.66.25-.9.75c-.17.34-.25.8-.17 1.46zm1.4-2.73-.17-.47q1.6-.59 2.8-1.47l.3.4.3.41q-1.34.97-3.06 1.6zm2.93-1.53-.3-.4c.59-.44.84-1.26.42-2.78l.48-.14.48-.13c.46 1.66.31 3.05-.79 3.85zm.6-3.32-.48.14a3.4 3.4 0 0 1 0-2.24c.27-.66.84-1.06 1.57-1.24l.12.48.12.49c-.5.13-.77.36-.9.66-.13.33-.15.83.05 1.58zm1.21-2.86-.12-.48q.79-.21 1.04-.65c.19-.29.28-.7.2-1.32l.5-.06.5-.06c.09.75 0 1.43-.36 1.98q-.56.82-1.64 1.08zm1.62-2.5-.5.05c-.09-.76.04-1.45.48-1.98.43-.52 1.1-.79 1.9-.88l.06.5.06.49c-.66.08-1.05.28-1.26.53s-.32.63-.24 1.22zm1.94-2.32-.06-.5a5.5 5.5 0 0 0 3.06-1.17l.33.38.34.37a6.5 6.5 0 0 1-3.61 1.42zm3.33-1.3-.33-.37c.6-.54.89-1.37.72-2.6l.5-.07.5-.06c.19 1.45-.12 2.65-1.05 3.48zm.89-3.04-.5.07c-.1-.79.07-1.49.64-1.97.53-.45 1.31-.62 2.24-.63v1c-.84 0-1.33.17-1.6.4-.22.19-.36.5-.28 1.07zm2.38-2.03v-.5c.84 0 1.2-.2 1.34-.4s.2-.6-.08-1.37l.47-.17.47-.18c.31.86.4 1.68-.04 2.3-.43.6-1.24.82-2.16.82zm1.73-2.44-.47.18a15 15 0 0 1-1.02-4.44l.5-.02.5-.02q.06 1.74.96 4.12zm-1-4.28-.5.02a3.7 3.7 0 0 1 1.33-3.23l.32.39.31.39q-1 .78-.95 2.41zm1.15-2.82-.32-.39c.92-.74 2.26-1.16 3.93-1.31l.04.5.05.5q-2.36.22-3.39 1.09zm3.65-1.2-.04-.5c1.57-.14 2.62-.55 3.26-1.15l.34.36.35.36c-.87.83-2.19 1.28-3.87 1.43zm3.56-1.3-.34-.36c.55-.52.74-1.37.3-2.75l.48-.15.48-.15c.48 1.55.38 2.87-.57 3.78zm.44-3.26-.48.15c-.25-.8-.26-1.56.12-2.16.39-.6 1.08-.9 1.91-1.03l.08.5.07.49c-.7.1-1.06.33-1.22.58s-.21.65 0 1.32zm1.63-2.55-.08-.5c.71-.1 1.07-.33 1.23-.57s.22-.63.02-1.28l.48-.15.48-.14c.24.78.25 1.52-.14 2.12-.4.59-1.08.89-1.92 1.01zm1.65-2.5-.48.15c-.47-1.52-.34-2.83.63-3.72l.34.37.34.36c-.57.53-.77 1.36-.35 2.7zm.5-3.2-.35-.37q1.16-1.07 2.34-2.12l.33.37.34.37q-1.18 1.06-2.33 2.11zm2.32-2.12-.33-.37q1.2-1.1 2.69-2.02l.26.42.27.42q-1.42.9-2.55 1.92zm2.62-1.97-.26-.42a3 3 0 0 0 1.44-2.16l.5.07.5.07a4 4 0 0 1-1.91 2.86zm1.68-2.51-.5-.07q.23-1.65.76-3.14l.47.16.47.17q-.48 1.38-.7 2.95zm.73-3.05-.47-.16q.45-1.25-.1-3.15l.49-.14.48-.14c.4 1.4.45 2.67.07 3.76zm-.08-3.45-.48.14c-.22-.75-.21-1.46.14-2.05s.95-.95 1.72-1.17l.14.48.13.48c-.63.18-.97.44-1.13.72s-.21.67-.04 1.26zm1.52-2.6-.14-.48c1.33-.37 2.07-.96 2.4-1.68l.45.2.46.2c-.5 1.1-1.56 1.83-3.04 2.24zm2.71-1.96-.46-.2q.68-1.51 2.12-2.59l.3.4.3.4a5.6 5.6 0 0 0-1.8 2.19zm1.96-2.39-.3-.4a8 8 0 0 0 2.01-2.16l.43.26.43.26a9 9 0 0 1-2.27 2.44zm2.14-2.3-.43-.26q.75-1.2.88-2.69l.5.05.5.04a7 7 0 0 1-1.02 3.12zm.95-2.9-.5-.05q.15-1.68.8-3.14l.46.2.46.2q-.58 1.3-.72 2.84zm.76-2.99-.46-.2q.66-1.5 2.08-2.61l.3.39.32.4a6 6 0 0 0-1.78 2.23zm1.93-2.42-.31-.4q.51-.4.57-.97a3 3 0 0 0-.32-1.55l.46-.2.45-.21c.33.74.49 1.44.4 2.09a2.4 2.4 0 0 1-.94 1.63zm.4-3.13-.46.2a3 3 0 0 1-.28-2.1c.19-.67.67-1.16 1.35-1.49l.22.45.22.45c-.5.25-.74.54-.83.86q-.17.49.23 1.43zm.83-2.94-.22-.45c1.07-.52 1.6-1.2 1.74-2.02l.5.08.49.08c-.2 1.23-1.01 2.14-2.3 2.76zm2.02-2.4-.5-.07q.3-1.75 1.78-2.92l.31.4.31.38q-1.2.97-1.41 2.3zm1.6-2.6-.32-.39q.48-.38.44-.95-.01-.64-.72-1.71l.42-.28.41-.28q.81 1.18.89 2.22.05 1.1-.82 1.78zm-.18-3.33-.42.28a4.5 4.5 0 0 1-.87-2.22q-.04-1.1.83-1.78l.31.4.3.4q-.48.37-.45.93.01.64.71 1.71zm-.15-3.32-.3-.4a3 3 0 0 0 1.25-2.26l.5.02.5.03a4 4 0 0 1-1.64 3zm1.45-2.64-.5-.02q.11-1.81 1.57-3.04l.32.38.33.38a3.2 3.2 0 0 0-1.22 2.33zm1.4-2.68-.33-.38a5.4 5.4 0 0 0 1.67-2.3l.47.17.47.17a6.4 6.4 0 0 1-1.97 2.72zm1.81-2.51-.47-.18q.54-1.47 1.5-2.8l.4.3.41.29a10 10 0 0 0-1.37 2.56zm1.44-2.69-.4-.29a44 44 0 0 1 1.97-2.52l.39.32.38.33q-1.03 1.2-1.94 2.46zm1.96-2.49-.39-.32q.38-.43.3-1.06c-.07-.45-.31-1-.8-1.68l.41-.3.41-.28q.81 1.11.96 2.12.15 1.05-.51 1.85zm-.48-3.35-.4.28c-1.04-1.45-1.54-2.8-1.28-4l.5.12.48.1c-.17.77.13 1.82 1.11 3.2zm-1.19-3.6-.49-.11c.27-1.23 1.32-2.08 2.88-2.66l.17.47.17.47c-1.43.53-2.08 1.2-2.24 1.93zm2.56-2.3-.17-.47c.68-.25.93-.54 1-.8s0-.68-.47-1.33l.4-.29.42-.29c.51.73.8 1.47.61 2.17-.19.72-.81 1.18-1.62 1.48zm.77-2.89-.41.29c-.52-.73-.8-1.5-.56-2.2s.93-1.14 1.79-1.42l.15.47.16.48c-.77.25-1.07.55-1.15.8-.08.24-.03.64.43 1.29zm.97-2.86-.15-.47q1.15-.39 1.6-.87.45-.45.4-1.03l.5-.03.5-.03q.05 1.03-.68 1.78-.72.72-2.01 1.13zm2.35-2.4-.5.03a3.8 3.8 0 0 1 1.42-3.18l.33.38.33.38a2.8 2.8 0 0 0-1.08 2.36zm1.25-2.77-.33-.38a1 1 0 0 0 .3-.42 1 1 0 0 0-.01-.5 4.4 4.4 0 0 0-1.24-1.74l.35-.36.35-.35a5.3 5.3 0 0 1 1.5 2.19q.15.53 0 1.06-.16.5-.6.88zm-.93-3.4-.35.36q-.6-.6-.89-1.15a1.6 1.6 0 0 1-.15-1.2c.12-.4.42-.69.79-.9q.55-.31 1.38-.48l.1.49.1.48q-.73.16-1.08.37c-.23.14-.3.26-.33.34s-.03.22.09.45q.16.36.7.89zm.89-2.88-.1-.5a4 4 0 0 0 1.97-.8 1 1 0 0 0 .26-.4 1 1 0 0 0-.05-.53l.47-.16.47-.17q.2.54.08 1.08-.13.53-.55.92c-.52.49-1.37.82-2.45 1.04zm2.55-2.4-.47.17a4.8 4.8 0 0 1-.01-3.5l.46.2.46.2q-.51 1.18.03 2.77zm-.02-3.13-.46-.2c.28-.67.1-1.6-.89-2.85l.4-.3.39-.31c1.06 1.34 1.51 2.66 1.02 3.85zm-.95-3.35-.4.3a5 5 0 0 1-1-2q-.2-1.02.42-1.84l.4.3.4.29q-.36.47-.24 1.07.1.64.8 1.57zm-.58-3.25-.4-.3q.97-1.31 2.16-2.58l.37.34.36.34q-1.15 1.24-2.09 2.5zm2.13-2.54-.37-.34q.47-.5.46-1.06c0-.38-.13-.84-.48-1.39l.42-.27.43-.26c.4.65.64 1.3.63 1.93q-.01.98-.73 1.73zm.03-3.06-.42.27c-.42-.67-.61-1.35-.44-2.02s.66-1.18 1.34-1.59l.26.43.25.43c-.56.34-.8.67-.88.98s-.02.7.32 1.24zm.74-2.9-.26-.44a38 38 0 0 0 3.42-2.27l.3.4.3.4q-1.62 1.21-3.5 2.33zm3.46-2.31-.3-.4c.45-.34.64-.68.67-1 .03-.33-.1-.77-.5-1.32l.41-.3.41-.28a3 3 0 0 1 .67 2 2.4 2.4 0 0 1-1.06 1.7zm.28-3.01-.4.29a17 17 0 0 1-2.03-3.58l.46-.19.47-.18a16 16 0 0 0 1.91 3.37zm-1.97-3.48-.46.19q-.22-.52-.15-1.04.08-.53.43-.95c.45-.55 1.21-.97 2.18-1.3l.17.47.16.47a4 4 0 0 0-1.74 1 1 1 0 0 0-.2.45q-.05.2.08.53zm2.17-2.63-.17-.47q.67-.23.98-.48c.22-.15.3-.3.33-.4.05-.18-.01-.55-.66-1.16l.35-.36.34-.37c.69.66 1.15 1.4.93 2.17-.1.38-.36.68-.7.93q-.49.36-1.24.61zm.83-2.87-.35.36a4.6 4.6 0 0 1-1.36-1.98q-.28-1.07.45-1.93l.38.33.38.32q-.4.47-.24 1.01c.11.41.44.92 1.08 1.53zm-.88-3.22-.38-.32q.46-.55.44-1.1.02-.55-.49-1.33l.41-.28.42-.28q.65.94.66 1.89 0 .96-.68 1.75zm-.01-3.03-.42.28a2.7 2.7 0 0 1-.53-1.96c.1-.66.52-1.22 1.13-1.68l.3.4.3.39c-.48.37-.69.72-.74 1.05s.03.74.37 1.24zm.48-2.97-.3-.4a3 3 0 0 0 .96-1.13q.25-.54.08-1.17l.49-.13.48-.12q.24.95-.13 1.82a4 4 0 0 1-1.28 1.53zm1.23-2.83-.49.13c-.32-1.28.13-2.42 1.22-3.38l.33.38.33.37c-.87.77-1.12 1.55-.9 2.38zM763 440l-.33-.38q1.44-1.28 2.6-2.6l.38.33.38.32a30 30 0 0 1-2.7 2.7zm2.65-2.65-.37-.33a1 1 0 0 0 .23-.45q.03-.2-.1-.5c-.2-.4-.7-.93-1.58-1.53l.28-.42.28-.4q1.42.94 1.92 1.93.25.51.19 1.06-.08.54-.47.97zm-1.54-3.23-.28.42c-.93-.64-1.59-1.3-1.83-1.98a1.6 1.6 0 0 1 0-1.1q.22-.52.7-.9l.32.39.31.39q-.32.27-.39.47a.6.6 0 0 0 0 .42c.14.37.56.87 1.45 1.48zm-1.09-3.17-.31-.4c.5-.39.76-.77.86-1.12q.16-.52-.14-1.17l.45-.22.45-.22q.47.95.2 1.89-.28.91-1.2 1.63zm.86-2.9-.45.21q-.5-1.04.11-2a5 5 0 0 1 2-1.5l.21.45.21.45q-1.26.61-1.58 1.15-.33.46-.05 1.01zm1.87-2.84-.21-.45q1.26-.6 1.7-1.18.4-.52.25-1.03l.48-.13.48-.14q.27 1.06-.43 1.92a6 6 0 0 1-2.06 1.46zm2.22-2.8-.49.14a13 13 0 0 1-.49-3.19l.5-.01.5-.01q.04 1.44.46 2.94zm-.48-3.06-.5.01a5.5 5.5 0 0 0-1-2.84l.41-.27.42-.28a6.4 6.4 0 0 1 1.17 3.37zm-1.09-3.1-.41.27q-1.1-1.66-1.48-3.28l.49-.11.48-.12q.32 1.43 1.34 2.96zm-1.4-3.12-.5.11c-.3-1.3.37-2.44 1.66-3.42l.3.4.3.4c-1.13.86-1.45 1.65-1.28 2.4zm1.47-2.92-.3-.4c1.16-.88 1.7-1.73 1.8-2.54l.5.05.5.06c-.14 1.2-.93 2.27-2.2 3.23zm2-2.89-.5-.05q.18-1.6.95-3.15l.45.22.44.22a9 9 0 0 0-.85 2.82zm.9-2.98-.45-.22q.61-1.2-.18-2.54l.43-.26.43-.25a3.5 3.5 0 0 1 .21 3.5zm-.2-3.02-.43.26a7 7 0 0 1-1.05-3.28l.5-.03.5-.02q.06 1.36.91 2.82zm-.98-3.05-.5.03q-.08-1.46-.42-2.93l.49-.11.48-.12q.38 1.55.45 3.11zm-.43-3.01-.5.11a4.6 4.6 0 0 1 .51-3.36l.44.24.44.24q-.74 1.34-.4 2.65zm.45-3-.44-.25q.7-1.21-.11-2.5l.42-.27.43-.26a3.3 3.3 0 0 1 .14 3.51zm-.13-3.02-.42.27a22 22 0 0 0-2.23-2.96l.37-.33.38-.34a23 23 0 0 1 2.33 3.1zm-2.28-3.02-.37.33a5 5 0 0 1-.56-.76 1.5 1.5 0 0 1-.23-.75q.02-.46.4-.73.33-.2.75-.24l.05.5.04.5a1 1 0 0 0-.27.07l.02-.03.01-.05v.02l.02.04.08.18q.13.23.44.58zm.04-1.65-.05-.5c.7-.07 1.33-.49 1.86-1.4l.43.25.43.25c-.64 1.1-1.51 1.79-2.62 1.9z"/><defs><radialGradient id="a" cx="0" cy="0" r="1" gradientTransform="rotate(-90 382 0)scale(382)" gradientUnits="userSpaceOnUse"><stop offset=".78" stop-color="#031c39"/><stop offset="1" stop-color="#04264e"/></radialGradient></defs></svg>

