<svg width="28" height="28" viewBox="0 0 28 28" fill="none" xmlns="http://www.w3.org/2000/svg">
<path opacity="0.987" fill-rule="evenodd" clip-rule="evenodd" d="M12.6157 1.8568C13.8845 1.71505 14.6352 1.71505 15.9985 1.8568C18.4116 2.21397 20.6486 3.3294 22.386 5.0418C21.212 6.15154 20.0534 7.27748 18.9105 8.4193C16.7218 6.5643 14.2788 6.13613 11.5815 7.1348C9.60283 8.0448 8.225 9.51947 7.448 11.5588C6.17827 10.6135 4.92508 9.64619 3.689 8.6573C3.60309 8.61208 3.50498 8.59553 3.409 8.61005C5.3725 4.82422 8.44083 2.57255 12.614 1.85505" fill="#F44336"/>
<path opacity="0.997" fill-rule="evenodd" clip-rule="evenodd" d="M3.40551 8.61007C3.50468 8.59491 3.5986 8.61066 3.68726 8.65732C4.92335 9.64621 6.17653 10.6135 7.44626 11.5588C7.24646 12.3534 7.12051 13.1648 7.07001 13.9826C7.11318 14.7736 7.2386 15.55 7.44626 16.3118L3.50001 19.4531C1.78151 15.8621 1.75001 12.2477 3.40551 8.61007Z" fill="#FFC107"/>
<path opacity="0.999" fill-rule="evenodd" clip-rule="evenodd" d="M22.1988 23.2575C20.97 22.1739 19.6836 21.1574 18.3453 20.2125C19.6869 19.2652 20.5013 17.9655 20.7883 16.3135H14.2135V11.7478C18.0052 11.7163 21.7951 11.7484 25.5833 11.844C26.3019 15.7465 25.4718 19.2652 23.093 22.4C22.8101 22.7007 22.5105 22.9869 22.1988 23.2575Z" fill="#448AFF"/>
<path opacity="0.993" fill-rule="evenodd" clip-rule="evenodd" d="M7.44625 16.3135C8.88125 19.88 11.5121 21.5448 15.3388 21.308C16.413 21.1836 17.4429 20.8084 18.3453 20.2125C19.6846 21.1598 20.9691 22.1748 22.1988 23.2575C20.2504 25.0083 17.7662 26.0471 15.1515 26.2045C14.5574 26.252 13.9606 26.252 13.3665 26.2045C8.91217 25.6795 5.62333 23.429 3.5 19.453L7.44625 16.3135Z" fill="#43A047"/>
</svg>